<?xml version="1.0" encoding="UTF-8"?>
<svg version="1.1" xmlns="http://www.w3.org/2000/svg" width="1198" height="544">
<path d="M0 0 C395.34 0 790.68 0 1198 0 C1198 179.52 1198 359.04 1198 544 C802.66 544 407.32 544 0 544 C0 364.48 0 184.96 0 0 Z " fill="#FEFEFE" transform="translate(0,0)"/>
<path d="M0 0 C3.7579398 1.09751364 7.02778208 3.06289224 10.40234375 5.01953125 C11.44559814 5.62265137 12.48885254 6.22577148 13.5637207 6.84716797 C14.67706787 7.49572754 15.79041504 8.14428711 16.9375 8.8125 C18.11211842 9.49383319 19.28684325 10.17498299 20.46166992 10.85595703 C29.40412939 16.04558689 38.30919779 21.29804079 47.203125 26.5703125 C53.81051923 30.48469998 60.4359999 34.36808973 67.0625 38.25 C67.67043396 38.60620422 68.27836792 38.96240845 68.90472412 39.32940674 C73.26949335 41.88682228 77.63468865 44.44350995 82 47 C86.97946331 49.91616047 91.95874122 52.8326368 96.9375 55.75 C97.54626984 56.10670776 98.15503967 56.46341553 98.78225708 56.83093262 C107.40969973 61.88695784 116.02460825 66.96379267 124.63037109 72.05664062 C132.09706852 76.47267827 139.57793238 80.8643507 147.0625 85.25 C147.67236755 85.60738251 148.28223511 85.96476501 148.9105835 86.33297729 C154.50229146 89.60951389 160.09466293 92.88491657 165.68798828 96.15869141 C178.82864749 103.84995459 191.9619768 111.55301711 205.0625 119.3125 C206.07070801 119.9094165 207.07891602 120.50633301 208.11767578 121.12133789 C210.1345287 122.31749902 212.13847287 123.53571754 214.12831402 124.77629375 C216.98712339 126.4964142 219.8989166 127.86313172 222.95476246 129.1990099 C236.22475076 135.39839055 236.22475076 135.39839055 239.16386008 141.3612287 C241.03417726 148.2573873 240.66983955 155.35226049 240.50854492 162.43432617 C240.5274825 164.80578105 240.55500087 167.1771805 240.59040833 169.54844666 C240.66000599 175.9637281 240.60450152 182.37227896 240.52185225 188.78718352 C240.45097064 194.8270897 240.48067942 200.86691886 240.49750081 206.90708164 C240.52683198 218.87397999 240.4562849 230.83824031 240.33276367 242.80444336 C240.21308803 254.39952351 240.1777754 265.99108291 240.23022461 277.58666992 C240.28734161 290.2367521 240.29684529 302.88520946 240.22473413 315.53527242 C240.21710548 316.8852886 240.2095037 318.23530494 240.20192909 319.58532143 C240.19814002 320.24942985 240.19435095 320.91353827 240.19044706 321.59777119 C240.16679076 326.26476191 240.17649286 330.93078893 240.19725609 335.5977993 C240.22115463 341.88459481 240.17043491 348.16653125 240.06248283 354.45240211 C240.03470654 356.75603464 240.03226212 359.06013556 240.05724716 361.36380005 C240.21784317 378.2965254 240.21784317 378.2965254 236.54218888 382.77702165 C233.03142834 385.7369133 229.17795928 387.56034142 224.92078173 389.20521891 C221.8166592 390.48964277 219.07068542 392.24211037 216.2109375 394 C213.93274816 395.33412249 211.65410271 396.66744099 209.375 398 C208.12169457 398.73363818 206.86844069 399.46736441 205.61523438 400.20117188 C203.02721472 401.71648184 200.43898014 403.23142367 197.85058594 404.74609375 C192.33076289 407.97656524 186.81367 411.2116927 181.29647827 414.44665527 C178.29017977 416.20936442 175.28377966 417.97190022 172.27734375 419.734375 C171.68059341 420.08421448 171.08384308 420.43405396 170.4690094 420.79449463 C166.77406415 422.9604745 163.07862593 425.12561088 159.38284302 427.29016113 C147.91128486 434.00887326 136.44098037 440.72928431 125 447.5 C116.65768032 452.4369436 108.30111986 457.34926219 99.9375 462.25 C99.32763245 462.60738251 98.71776489 462.96476501 98.0894165 463.33297729 C91.88705535 466.96733435 85.68367895 470.59995524 79.47952271 474.23124695 C76.44439897 476.00784849 73.40959932 477.78500289 70.375 479.5625 C69.77594849 479.91337677 69.17689697 480.26425354 68.55969238 480.62576294 C59.75260903 485.78566754 50.96490005 490.97726059 42.1875 496.1875 C33.34308553 501.43327357 24.49431255 506.67140836 15.625 511.875 C14.62621826 512.46434326 13.62743652 513.05368652 12.59838867 513.66088867 C11.67131104 514.20334229 10.7442334 514.7457959 9.7890625 515.3046875 C8.57790771 516.0160083 8.57790771 516.0160083 7.34228516 516.74169922 C4.88540521 518.06156156 2.68841167 519.23389574 0 520 C-2.12695312 519.3034668 -2.12695312 519.3034668 -4.28125 517.94921875 C-5.10761963 517.44422852 -5.93398926 516.93923828 -6.78540039 516.41894531 C-7.68121826 515.84756836 -8.57703613 515.27619141 -9.5 514.6875 C-11.48747604 513.46613666 -13.47580072 512.24615352 -15.46484375 511.02734375 C-16.52429199 510.3710498 -17.58374023 509.71475586 -18.67529297 509.03857422 C-23.81812821 505.88519823 -29.02875999 502.84996223 -34.24053955 499.81262207 C-37.32863076 498.0115545 -40.41197148 496.20238352 -43.49609375 494.39453125 C-47.83702232 491.85169514 -52.17863679 489.31003164 -56.52047729 486.76875305 C-59.55560103 484.99215151 -62.59040068 483.21499711 -65.625 481.4375 C-66.22405151 481.08662323 -66.82310303 480.73574646 -67.44030762 480.37423706 C-76.24738839 475.21433397 -85.03531005 470.02308978 -93.8125 464.8125 C-104.11144683 458.69889518 -114.44245249 452.64297552 -124.79296875 446.6171875 C-131.59900201 442.65401477 -138.3939101 438.67194619 -145.1875 434.6875 C-145.79197968 434.3329776 -146.39645935 433.9784552 -147.01925659 433.6131897 C-149.48036781 432.16972451 -151.94145961 430.72622624 -154.40248108 429.28260803 C-158.77256719 426.71931382 -163.1438287 424.15803239 -167.515625 421.59765625 C-199.38505854 402.93186531 -199.38505854 402.93186531 -202.43957806 400.96530914 C-207.34593494 397.88858813 -211.84540784 395.6263995 -217.41418457 393.99765015 C-224.91625863 391.40589539 -231.93752797 388.09407188 -236 381 C-241.39763885 365.63544691 -239.32305118 346.90207981 -239.02882195 330.90863466 C-238.93810336 324.87616918 -238.95453134 318.84459191 -238.96621114 312.81169216 C-238.98460601 300.86236589 -238.88102716 288.91721725 -238.70996094 276.96923828 C-238.54430364 265.39459874 -238.47370817 253.82433617 -238.50488281 242.24853516 C-238.53874569 229.61256404 -238.52630411 216.9784186 -238.4280858 204.34271657 C-238.42288838 203.67400206 -238.41769095 203.00528755 -238.41233602 202.31630897 C-238.40188232 200.97357017 -238.39132748 199.63083215 -238.38067016 198.28809495 C-238.34628577 193.62860848 -238.34318472 188.97005914 -238.3500824 184.31050491 C-238.35448372 178.03571452 -238.28325952 171.76613256 -238.15394974 165.49271774 C-238.11820101 163.19401062 -238.10769597 160.89474859 -238.12453842 158.5958252 C-238.22467611 141.70380351 -238.22467611 141.70380351 -234.53998756 137.22554541 C-231.02985484 134.26971669 -227.17844368 132.44529439 -222.92517853 130.79838538 C-219.79749947 129.50131438 -217.02488824 127.73359494 -214.140625 125.96484375 C-212.43372959 124.96660981 -210.72682877 123.96838471 -209.01937866 122.97109985 C-198.72024566 116.95476056 -188.44306232 110.90280857 -178.1875 104.8125 C-167.88865531 98.69872452 -157.55754601 92.64297465 -147.20703125 86.6171875 C-137.31607737 80.85765662 -127.44723642 75.06030328 -117.57485962 69.26901245 C-113.27129748 66.74475954 -108.96608543 64.22333761 -104.66015625 61.703125 C-92.81746777 54.77038025 -80.98755741 47.81761883 -69.1875 40.8125 C-58.92216776 34.71884929 -48.62496983 28.68251353 -38.30859375 22.67578125 C-31.58537988 18.76068284 -24.86887901 14.83417248 -18.15545654 10.90231323 C-16.85247899 10.13937043 -15.54929977 9.37677194 -14.24591064 8.61453247 C-12.4277502 7.55118693 -10.61027336 6.48668236 -8.79296875 5.421875 C-7.7464917 4.80924805 -6.70001465 4.19662109 -5.62182617 3.56542969 C-3.71656236 2.42784224 -1.84635229 1.23090153 0 0 Z " fill="#2A3C73" transform="translate(248,12)"/>
<path d="M0 0 C9.9 0 19.8 0 30 0 C36.46346826 6.94996587 36.46346826 6.94996587 37.7734375 10.703125 C40.12696665 16.64287558 43.44690199 21.84844494 46.84011841 27.24383545 C48.7085657 30.23395385 50.52731404 33.25387542 52.34765625 36.2734375 C52.72339279 36.89558136 53.09912933 37.51772522 53.48625183 38.15872192 C58.80657756 46.97871624 64.04852998 55.84560021 69.29199219 64.71142578 C74.1261633 72.8798091 79.00592671 81.01574262 84.05615234 89.05322266 C87 93.78794078 87 93.78794078 87 96 C87.66 96 88.32 96 89 96 C89.26014893 95.2977832 89.52029785 94.59556641 89.78833008 93.87207031 C91.10217251 90.75781636 92.67165738 87.95963039 94.38671875 85.046875 C94.72020828 84.47862 95.05369781 83.91036499 95.39729309 83.32489014 C96.49051658 81.46450083 97.58888298 79.60720852 98.6875 77.75 C99.45852313 76.44086697 100.22935384 75.1316206 101 73.82226562 C106.38591827 64.68262735 111.8349526 55.58139926 117.31079102 46.49536133 C123.04913899 36.95889331 128.67459459 27.35760599 134.27929688 17.7421875 C134.79573257 16.85763634 134.79573257 16.85763634 135.32260132 15.95521545 C136.25269503 14.36192536 137.18133626 12.76778761 138.10986328 11.17358398 C140.34893845 7.41412414 142.68086878 3.71060996 145 0 C154.9 0 164.8 0 175 0 C175 51.15 175 102.3 175 155 C164.11 155 153.22 155 142 155 C141.67 124.97 141.34 94.94 141 64 C134.73 74.56 128.46 85.12 122 96 C114 109.375 114 109.375 110.3359375 115.36328125 C108.12101131 119.02073302 106.10968188 122.70472433 104.2265625 126.54296875 C98.15632677 138.55784912 98.15632677 138.55784912 92.03515625 140.90625 C87.22115339 141.98181199 83.25166814 141.56857058 79 139 C73.58851178 133.50598054 70.3342771 126.28055871 66.84814453 119.49121094 C63.96967959 114.05368801 60.73919682 108.84532657 57.50756836 103.6126709 C55.8210246 100.87391316 54.16092959 98.11917922 52.49609375 95.3671875 C46.70868411 85.88408188 40.84759374 76.44611296 35 67 C34.67 96.37 34.34 125.74 34 156 C22.78 156 11.56 156 0 156 C0 104.52 0 53.04 0 0 Z " fill="#BBB98C" transform="translate(91,193)"/>
<path d="M0 0 C3.9588413 0.46297434 6.81030206 1.81797728 10.2265625 3.81640625 C11.75337646 4.70307983 11.75337646 4.70307983 13.31103516 5.60766602 C14.40464355 6.25276123 15.49825195 6.89785645 16.625 7.5625 C17.782728 8.23873493 18.94077455 8.91442476 20.09912109 9.58959961 C23.73932999 11.71528337 27.37063572 13.85586518 31 16 C31.5779834 16.3412793 32.1559668 16.68255859 32.75146484 17.03417969 C38.980793 20.71345947 45.20244564 24.40558279 51.421875 28.1015625 C58.53018249 32.32121022 65.66831593 36.48852525 72.81225586 40.64746094 C80.61220381 45.18853965 88.40218263 49.74640482 96.1875 54.3125 C97.09421951 54.8442836 97.09421951 54.8442836 98.01925659 55.3868103 C100.48036781 56.83027549 102.94145961 58.27377376 105.40248108 59.71739197 C109.7725672 62.28068618 114.14383401 64.84195853 118.515625 67.40234375 C130.23331678 74.26564122 141.94372802 81.14054296 153.63037109 88.05664062 C164.18861716 94.30111651 174.77529235 100.49709071 185.36018372 106.69624329 C189.72544309 109.25291608 194.08958508 111.81148757 198.453125 114.37109375 C199.69913438 115.10189312 200.94514673 115.83268742 202.19116211 116.56347656 C204.47856819 117.90504548 206.76582471 119.2468681 209.05297852 120.58886719 C210.13506592 121.2234082 211.21715332 121.85794922 212.33203125 122.51171875 C213.95049076 123.5042632 213.95049076 123.5042632 215.60164642 124.51685905 C218.93962611 126.48889554 222.35740275 128.07310709 225.90303802 129.63812447 C241.90065623 137.12045756 241.90065623 137.12045756 245.37656403 143.54386091 C247.50764845 150.73474897 247.01122158 158.12561122 246.72460938 165.53857422 C246.71783009 168.00365533 246.72165835 170.46878482 246.73522949 172.93383789 C246.7406732 178.21934302 246.67326971 183.49600728 246.53752136 188.77920151 C246.34142965 196.41592375 246.27987179 204.04922067 246.24980956 211.68818702 C246.1974353 224.08331191 246.03816217 236.4746204 245.81054688 248.86767578 C245.58983553 260.89743097 245.42016693 272.92614523 245.31835938 284.95751953 C245.31205401 285.7005903 245.30574865 286.44366106 245.29925221 287.20924912 C245.26792855 290.93747156 245.23760022 294.66570129 245.20776653 298.39393592 C244.95944505 329.26539841 244.53537921 360.13211669 244 391 C243.21791168 391.44508408 242.43582336 391.89016815 241.6300354 392.34873962 C238.66292419 394.03821358 235.69654726 395.72896368 232.73062134 397.42051697 C231.45913347 398.14535559 230.18737437 398.86971869 228.91531372 399.59355164 C220.33505375 404.47647646 211.8230342 409.4531292 203.375 414.5625 C193.81976576 420.33320405 184.19217019 425.9610672 174.51245117 431.52026367 C166.81589442 435.9432868 159.15888587 440.4278801 151.52294922 444.95458984 C144.007586 449.40888626 136.47547579 453.83413262 128.9375 458.25 C128.32956604 458.60620422 127.72163208 458.96240845 127.09527588 459.32940674 C122.10220741 462.25495681 117.10855679 465.17951256 112.11486816 468.10400391 C107.76380661 470.65220484 103.41297039 473.20078989 99.0625 475.75 C98.14934525 476.28506165 98.14934525 476.28506165 97.21774292 476.83093262 C89.46931917 481.37181773 81.72895912 485.92604016 74 490.5 C64.44335635 496.15557452 54.86997377 501.78238147 45.28320312 507.38671875 C39.4831047 510.7785307 33.68879321 514.17898481 27.91542053 517.6161499 C25.25353483 519.20029749 22.58856687 520.77921867 19.92337036 522.35778809 C18.65153674 523.11307867 17.38122168 523.87093283 16.11251831 524.63146973 C14.3496546 525.68796275 12.58172887 526.73546181 10.8125 527.78125 C9.80832031 528.38001953 8.80414063 528.97878906 7.76953125 529.59570312 C5.07703245 530.96094053 2.99691881 531.71539413 0 532 C-2.75 530.7265625 -2.75 530.7265625 -6 528.625 C-7.3395029 527.78124029 -8.68081694 526.9403524 -10.0234375 526.1015625 C-10.79526367 525.6159082 -11.56708984 525.13025391 -12.36230469 524.62988281 C-17.11338677 521.69409755 -21.94632369 518.89616935 -26.77023315 516.08233643 C-29.28312676 514.61595466 -31.79357105 513.14540452 -34.30412292 511.67501831 C-36.24205531 510.54008946 -38.18030982 509.4057126 -40.11865234 508.27148438 C-46.39288935 504.59985448 -52.6655234 500.92548963 -58.9375 497.25 C-59.54563538 496.89365479 -60.15377075 496.53730957 -60.78033447 496.17016602 C-69.40842046 491.11377846 -78.02397288 486.03658334 -86.63037109 480.94335938 C-94.09706852 476.52732173 -101.57793238 472.1356493 -109.0625 467.75 C-109.67236755 467.39261749 -110.28223511 467.03523499 -110.9105835 466.66702271 C-117.11294465 463.03266565 -123.31632105 459.40004476 -129.52047729 455.76875305 C-132.55560103 453.99215151 -135.59040068 452.21499711 -138.625 450.4375 C-139.22405151 450.08662323 -139.82310303 449.73574646 -140.44030762 449.37423706 C-149.24738839 444.21433397 -158.03531005 439.02308978 -166.8125 433.8125 C-176.1068922 428.29521344 -185.42314172 422.81772572 -194.76464844 417.38061523 C-204.28781568 411.83755033 -213.7923321 406.26291047 -223.29443359 400.68383789 C-224.46842194 399.99495011 -225.64241271 399.30606645 -226.81640625 398.6171875 C-227.84193604 398.01503418 -228.86746582 397.41288086 -229.92407227 396.79248047 C-233.2712866 394.84190918 -236.63634805 392.92208683 -240 391 C-240 308.5 -240 226 -240 141 C-230.76 135.72 -221.52 130.44 -212 125 C-202.60469649 119.372355 -202.60469649 119.372355 -193.22265625 113.72265625 C-185.71101977 109.20663995 -178.11255062 104.84457853 -170.51245117 100.47973633 C-162.81731441 96.05752923 -155.16136291 91.57435098 -147.52734375 87.04760742 C-139.97094559 82.56811063 -132.39373928 78.12474741 -124.8125 73.6875 C-115.2532953 68.09173366 -105.71176443 62.46755348 -96.1875 56.8125 C-85.88860421 50.69880989 -75.55754676 44.64297508 -65.20703125 38.6171875 C-57.19149702 33.94971888 -49.19104102 29.2565577 -41.19091797 24.56274414 C-39.97233592 23.84781016 -38.75374865 23.13288508 -37.53515625 22.41796875 C-36.92714172 22.06124588 -36.3191272 21.70452301 -35.69268799 21.33699036 C-31.73764303 19.01723301 -27.78025077 16.70152657 -23.82133484 14.38838196 C-21.11566932 12.80741291 -18.41064581 11.22534717 -15.70565796 9.64321899 C-14.4074948 8.88435174 -13.10901507 8.12602574 -11.81021118 7.36825562 C-10.01329021 6.31979718 -8.21746726 5.26948187 -6.421875 4.21875 C-5.39674805 3.61998047 -4.37162109 3.02121094 -3.31542969 2.40429688 C-1.11760763 1.19691194 -1.11760763 1.19691194 0 0 Z M-1.6652832 7.01953125 C-3.09360474 7.90705078 -3.09360474 7.90705078 -4.55078125 8.8125 C-5.6289209 9.46855225 -6.70706055 10.12460449 -7.81787109 10.80053711 C-8.98280602 11.53359825 -10.14768074 12.26675508 -11.3125 13 C-12.52822237 13.74624142 -13.7452018 14.4904385 -14.96337891 15.23266602 C-17.45362352 16.7513612 -19.93901022 18.27756366 -22.42138672 19.80908203 C-27.51925541 22.94330956 -32.69547668 25.94079463 -37.875 28.9375 C-39.84801048 30.08532883 -41.82066042 31.2337776 -43.79296875 32.3828125 C-44.79634277 32.96708008 -45.7997168 33.55134766 -46.83349609 34.15332031 C-55.70748978 39.32856228 -64.56438274 44.53312836 -73.42514038 49.73098755 C-77.72870252 52.25524046 -82.03391457 54.77666239 -86.33984375 57.296875 C-98.18253223 64.22961975 -110.01244259 71.18238117 -121.8125 78.1875 C-132.11144683 84.30110482 -142.44245249 90.35702448 -152.79296875 96.3828125 C-160.8209862 101.05755014 -168.83391184 105.75800492 -176.84643555 110.45922852 C-178.07470101 111.17986052 -179.30297252 111.90048223 -180.53125 112.62109375 C-181.1427742 112.97988113 -181.7542984 113.33866852 -182.38435364 113.70832825 C-186.16746787 115.92723477 -189.95290785 118.14211405 -193.74028015 120.35374451 C-196.28087323 121.83743144 -198.82070355 123.3224216 -201.36050415 124.8074646 C-203.09988531 125.82380569 -204.84032035 126.83834252 -206.58081055 127.8527832 C-208.7635991 129.12949653 -210.93293817 130.42956085 -213.08630466 131.75529671 C-215.83530488 133.40054126 -218.60770207 134.72945234 -221.54889584 135.99607658 C-230.2740844 139.99256777 -230.2740844 139.99256777 -236.04527402 147.30193567 C-237.75776667 154.19504324 -237.4182668 161.27123709 -237.28149414 168.32080078 C-237.30099295 170.69210024 -237.32818998 173.06334696 -237.36247253 175.43447876 C-237.43154053 181.85343087 -237.38768875 188.2670124 -237.31906438 194.68578959 C-237.28014946 198.69777661 -237.28044833 202.70912245 -237.29186821 206.72124863 C-237.29376024 207.38879715 -237.29565226 208.05634568 -237.29760162 208.74412294 C-237.30164007 210.10052879 -237.3057788 211.45693434 -237.31001668 212.81333958 C-237.34576009 225.5085813 -237.27380724 238.20142215 -237.16296243 250.89611743 C-237.0702446 261.77550652 -237.06319436 272.65213665 -237.12036133 283.53173828 C-237.18678005 296.18651512 -237.20506371 308.83974765 -237.14339346 321.49460208 C-237.13690508 322.84519549 -237.13045778 324.1957891 -237.12405205 325.5463829 C-237.12085295 326.21078631 -237.11765386 326.87518973 -237.11435782 327.55972657 C-237.09499428 332.22925427 -237.1098172 336.89773403 -237.13612556 341.56723404 C-237.16782334 347.85801583 -237.12530629 354.14407519 -237.02589607 360.43410873 C-237.00130907 362.73938912 -237.00208883 365.04510329 -237.03033066 367.3503418 C-237.62941271 378.67781032 -237.62941271 378.67781032 -233.5435226 388.7776885 C-230.03311667 391.73893538 -226.17932518 393.56143469 -221.92129123 395.20547557 C-218.816661 396.4893541 -216.07084707 398.24188743 -213.2109375 400 C-211.51900127 400.99078784 -209.82705769 401.98156372 -208.13446045 402.97122192 C-206.29572271 404.0463544 -204.45761431 405.12255654 -202.61962891 406.19897461 C-198.74690855 408.46681948 -194.87347762 410.73344886 -191 413 C-186.12440788 415.85315607 -181.2493004 418.70713767 -176.375 421.5625 C-175.77658295 421.91301422 -175.17816589 422.26352844 -174.56161499 422.62466431 C-165.75389057 427.7849295 -156.96532494 432.97653326 -148.1875 438.1875 C-137.88855317 444.30110482 -127.55754751 450.35702448 -117.20703125 456.3828125 C-110.40099799 460.34598523 -103.6060899 464.32805381 -96.8125 468.3125 C-95.90578049 468.8442836 -95.90578049 468.8442836 -94.98074341 469.3868103 C-92.51963219 470.83027549 -90.05854039 472.27377376 -87.59751892 473.71739197 C-83.2274328 476.28068618 -78.85616599 478.84195853 -74.484375 481.40234375 C-63.64584404 487.75069832 -52.81016391 494.10339976 -42 500.5 C-39.34804912 502.06760991 -36.69584543 503.63479064 -34.04345703 505.20166016 C-31.80185311 506.52619525 -29.56069531 507.85147248 -27.31982422 509.17724609 C-24.01593539 511.13136509 -20.70967135 513.08141882 -17.40209961 515.02929688 C-16.10415835 515.79448059 -14.806943 516.56089711 -13.51049805 517.32861328 C-11.69511845 518.40336328 -9.87717177 519.47364214 -8.05859375 520.54296875 C-7.00986084 521.16196045 -5.96112793 521.78095215 -4.88061523 522.41870117 C-1.0730417 524.53543632 -1.0730417 524.53543632 3 526 C5.21419013 525.37000123 5.21419013 525.37000123 7.28125 523.94921875 C8.10761963 523.44422852 8.93398926 522.93923828 9.78540039 522.41894531 C10.68121826 521.84756836 11.57703613 521.27619141 12.5 520.6875 C14.48747604 519.46613666 16.47580072 518.24615352 18.46484375 517.02734375 C19.52429199 516.3710498 20.58374023 515.71475586 21.67529297 515.03857422 C26.81858229 511.8849198 32.02967606 508.8494123 37.24191284 505.8117981 C40.32300183 504.01485341 43.39941325 502.20992974 46.4765625 500.40625 C47.72815617 499.67311914 48.97978386 498.94004638 50.23144531 498.20703125 C51.16373962 497.66103271 51.16373962 497.66103271 52.11486816 497.10400391 C53.37162272 496.3680013 54.62837728 495.6319987 55.88513184 494.89599609 C60.23619339 492.34779516 64.58702961 489.79921011 68.9375 487.25 C69.85065475 486.71493835 69.85065475 486.71493835 70.78225708 486.16906738 C78.53068083 481.62818227 86.27104088 477.07395984 94 472.5 C102.34231968 467.5630564 110.69888014 462.65073781 119.0625 457.75 C119.67236755 457.39261749 120.28223511 457.03523499 120.9105835 456.66702271 C127.11294465 453.03266565 133.31632105 449.40004476 139.52047729 445.76875305 C142.55560103 443.99215151 145.59040068 442.21499711 148.625 440.4375 C149.22405151 440.08662323 149.82310303 439.73574646 150.44030762 439.37423706 C160.37504937 433.5536586 170.28346821 427.68982189 180.18359375 421.81054688 C186.36613151 418.14238627 192.56030338 414.49591344 198.77661133 410.88525391 C200.7312583 409.74823797 202.67539368 408.59200861 204.59062481 407.38978577 C209.81535413 404.18359495 214.63015493 401.67343033 220.52404785 399.94271851 C227.99441696 397.36580504 234.97074035 394.07248513 239 387 C244.3824721 371.62200953 242.32322333 352.91143728 242.02882195 336.90863466 C241.93810336 330.87616918 241.95453134 324.84459191 241.96621114 318.81169216 C241.98460601 306.86236589 241.88102716 294.91721725 241.70996094 282.96923828 C241.54430364 271.39459874 241.47370817 259.82433617 241.50488281 248.24853516 C241.53874569 235.61256404 241.52630411 222.9784186 241.4280858 210.34271657 C241.42288838 209.67400206 241.41769095 209.00528755 241.41233602 208.31630897 C241.40188232 206.97357017 241.39132748 205.63083215 241.38067016 204.28809495 C241.34628577 199.62860848 241.34318472 194.97005914 241.3500824 190.31050491 C241.35448372 184.03571452 241.28325952 177.76613256 241.15394974 171.49271774 C241.11820101 169.19401062 241.10769597 166.89474859 241.12453842 164.5958252 C241.66086767 153.28974166 241.66086767 153.28974166 237.5388546 143.22497892 C234.0271179 140.26870394 230.17436182 138.44278162 225.91949654 136.79554439 C222.81672908 135.50958779 220.07029109 133.75729772 217.2109375 132 C215.51854448 131.00893583 213.82614421 130.01788347 212.13308716 129.0279541 C210.29848728 127.95526299 208.46449093 126.88154585 206.63061523 125.80761719 C204.04774656 124.29519581 201.46465333 122.78315921 198.88134766 121.27148438 C192.60711065 117.59985448 186.3344766 113.92548963 180.0625 110.25 C179.45436462 109.89365479 178.84622925 109.53730957 178.21966553 109.17016602 C169.59157954 104.11377846 160.97602712 99.03658334 152.36962891 93.94335938 C144.90293148 89.52732173 137.42206762 85.1356493 129.9375 80.75 C129.32763245 80.39261749 128.71776489 80.03523499 128.0894165 79.66702271 C121.88705535 76.03266565 115.68367895 72.40004476 109.47952271 68.76875305 C106.44439897 66.99215151 103.40959932 65.21499711 100.375 63.4375 C99.77594849 63.08662323 99.17689697 62.73574646 98.55969238 62.37423706 C89.75261161 57.21433397 80.96468995 52.02308978 72.1875 46.8125 C62.89484763 41.29624623 53.58210495 35.81666891 44.23974609 30.38500977 C38.55890968 27.08117726 32.88951304 23.75893176 27.23046875 20.41796875 C25.24219351 19.24590067 23.25377309 18.07407924 21.26531982 16.90231323 C19.97507212 16.14096829 18.68554737 15.37839668 17.39678955 14.61453247 C15.59578694 13.54717244 13.79229617 12.48413347 11.98828125 11.421875 C10.43427612 10.50293457 10.43427612 10.50293457 8.84887695 9.56542969 C7.90874756 9.04883789 6.96861816 8.53224609 6 8 C5.16597656 7.54141602 4.33195313 7.08283203 3.47265625 6.61035156 C0.93471753 5.73436667 0.93471753 5.73436667 -1.6652832 7.01953125 Z " fill="#B7B68E" transform="translate(247,6)"/>
<path d="M0 0 C7.92 0 15.84 0 24 0 C24 32.01 24 64.02 24 97 C14.76 97 5.52 97 -4 97 C-4.33 84.13 -4.66 71.26 -5 58 C-11.71475704 69.93431631 -11.71475704 69.93431631 -18.1875 82 C-20.6488622 85.68562235 -22.24848606 87.62560942 -26.22265625 89.60546875 C-30.43614792 90.30071821 -33.41037812 90.33680356 -37 88 C-41.89154511 82.64246948 -45.26961392 76.1346849 -48.57470703 69.72241211 C-50.2960499 66.4345234 -52.15871393 63.22225062 -54 60 C-54.33 72.21 -54.66 84.42 -55 97 C-64.24 97 -73.48 97 -83 97 C-83 65.32 -83 33.64 -83 1 C-75.08 1 -67.16 1 -59 1 C-53.10766654 7.65487073 -53.10766654 7.65487073 -51.64453125 11.3125 C-48.46953534 18.49567547 -44.27643654 25.0777811 -40.21353149 31.78222656 C-38.05328156 35.3614811 -35.92925764 38.96199185 -33.8046875 42.5625 C-33.06500074 43.81383716 -32.32526066 45.0651428 -31.58544922 46.31640625 C-31.06225098 47.20199219 -30.53905273 48.08757812 -30 49 C-22.63971852 37.45111099 -15.67239131 25.69973275 -8.80297852 13.85473633 C-8.44236328 13.23498428 -8.08174805 12.61523224 -7.71020508 11.97669983 C-6.71900748 10.27302854 -5.73063 8.56771741 -4.74243164 6.86230469 C-3 4 -3 4 0 0 Z " fill="#BAB88C" transform="translate(684,232)"/>
<path d="M0 0 C7.92 0 15.84 0 24 0 C27.67882396 5.51823595 31.2568201 10.9626604 34.6015625 16.66796875 C35.20718521 17.69293205 35.20718521 17.69293205 35.82504272 18.73860168 C37.09408342 20.88683631 38.35984334 23.03697604 39.625 25.1875 C40.89760094 27.34855239 42.17097683 29.50913382 43.44638062 31.66853333 C44.23390755 33.00207512 45.01984461 34.33655766 45.80386353 35.67216492 C47.5455995 38.62310883 49.32667646 41.50698238 51.27099609 44.3293457 C53 47 53 47 53 49 C53.66 49 54.32 49 55 49 C55.42079834 47.89797241 55.42079834 47.89797241 55.85009766 46.77368164 C56.89286911 44.25841063 58.04727862 41.98077939 59.3984375 39.62109375 C59.8723291 38.7914209 60.3462207 37.96174805 60.83447266 37.10693359 C61.34284668 36.22602051 61.8512207 35.34510742 62.375 34.4375 C63.16269775 33.06585693 63.16269775 33.06585693 63.96630859 31.66650391 C77.24715504 8.62926744 77.24715504 8.62926744 83 0 C90.92 0 98.84 0 107 0 C107 31.68 107 63.36 107 96 C97.76 96 88.52 96 79 96 C78.67 83.79 78.34 71.58 78 59 C72.77777219 67.83972613 72.77777219 67.83972613 67.55883789 76.68139648 C66.91164795 77.77524658 66.26445801 78.86909668 65.59765625 79.99609375 C64.93258057 81.12200928 64.26750488 82.2479248 63.58227539 83.40795898 C62 86 62 86 61 87 C55.99798345 87.96826152 50.91119945 88.62237109 46 87 C41.63192546 82.93892016 39.29042927 78.31011143 36.5625 73 C34.066875 68.38 31.57125 63.76 29 59 C28.67 71.21 28.34 83.42 28 96 C18.76 96 9.52 96 0 96 C0 64.32 0 32.64 0 0 Z " fill="#B9B78C" transform="translate(628,102)"/>
<path d="M0 0 C8.085 -0.103125 16.17 -0.20625 24.5 -0.3125 C27.01689453 -0.35802002 29.53378906 -0.40354004 32.12695312 -0.45043945 C47.06964767 -0.60784337 62.28719257 -0.38394572 74.16796875 10.04296875 C81.42348266 17.79352839 84.35637656 25.36217666 84.3125 35.875 C84.32861328 36.63941406 84.34472656 37.40382812 84.36132812 38.19140625 C84.36778648 45.79934262 82.38153934 51.855781 77.5625 57.8125 C76.98628906 58.54082031 76.41007812 59.26914063 75.81640625 60.01953125 C74.01838464 61.97995481 72.17810083 63.48250997 70 65 C71.3967597 67.94885337 73.00434284 70.58589148 74.86328125 73.265625 C75.42080078 74.07386719 75.97832031 74.88210937 76.55273438 75.71484375 C77.13345703 76.55144531 77.71417969 77.38804687 78.3125 78.25 C82.3566295 84.08490485 86.28459579 89.94939803 90 96 C61.48171204 98.3779467 61.48171204 98.3779467 54.43798828 94.640625 C50.83158693 91.35349706 48.75933886 87.44386858 46.91210938 82.97607422 C45.91185972 80.80904512 44.6881943 79.04203379 43.265625 77.12890625 C41 74 41 74 41 72 C37.04 72 33.08 72 29 72 C29 79.92 29 87.84 29 96 C19.43 96 9.86 96 0 96 C0 64.32 0 32.64 0 0 Z " fill="#B9B78C" transform="translate(1004,102)"/>
<path d="M0 0 C8.023125 -0.061875 16.04625 -0.12375 24.3125 -0.1875 C26.82270752 -0.21481201 29.33291504 -0.24212402 31.91918945 -0.27026367 C33.94221518 -0.27903778 35.96524627 -0.28667952 37.98828125 -0.29296875 C39.01159546 -0.30831665 40.03490967 -0.32366455 41.0892334 -0.33947754 C53.82496664 -0.34403198 66.80146223 3.39220734 76.3984375 12.125 C84.1890884 21.24576203 85.72365437 30.39472801 85 42 C83.58888967 50.44274489 79.54019216 58.07903126 73.125 63.8125 C59.62057385 73.2655983 45.98518103 73.32402394 30 73 C30 80.92 30 88.84 30 97 C20.1 97 10.2 97 0 97 C0 64.99 0 32.98 0 0 Z " fill="#BAB88C" transform="translate(749,232)"/>
<path d="M0 0 C24.75 0 49.5 0 75 0 C75 8.25 75 16.5 75 25 C60.15 25 45.3 25 30 25 C30 28.3 30 31.6 30 35 C43.2 35 56.4 35 70 35 C70 43.25 70 51.5 70 60 C56.47 60 42.94 60 29 60 C29 63.63 29 67.26 29 71 C44.84 71 60.68 71 77 71 C77 79.25 77 87.5 77 96 C51.59 96 26.18 96 0 96 C0 64.32 0 32.64 0 0 Z " fill="#B9B78C" transform="translate(890,102)"/>
<path d="M0 0 C24.75 0 49.5 0 75 0 C75 8.25 75 16.5 75 25 C59.82 25 44.64 25 29 25 C29 28.3 29 31.6 29 35 C42.53 35 56.06 35 70 35 C70 43.25 70 51.5 70 60 C56.47 60 42.94 60 29 60 C29 63.63 29 67.26 29 71 C44.51 71 60.02 71 76 71 C76 79.25 76 87.5 76 96 C50.92 96 25.84 96 0 96 C0 64.32 0 32.64 0 0 Z " fill="#B6B58B" transform="translate(777,102)"/>
<path d="M0 0 C8.58 0 17.16 0 26 0 C30.74624808 9.28866956 35.05103477 18.70562145 39.25 28.25 C40.65313189 31.42918962 42.05859272 34.60734522 43.46484375 37.78515625 C43.82821335 38.60671707 44.19158295 39.42827789 44.56596375 40.2747345 C47.32752796 46.50816631 50.12703642 52.72384647 52.94140625 58.93359375 C53.55328293 60.28534195 53.55328293 60.28534195 54.17752075 61.66439819 C56.58136297 66.97427542 56.58136297 66.97427542 58.99401855 72.28015137 C60.11058448 74.73059349 61.22172896 77.18343358 62.33203125 79.63671875 C62.65949844 80.35097519 62.98696564 81.06523163 63.32435608 81.8011322 C65.5935852 86.83211996 67.23290423 91.6987127 69 97 C58.77 97 48.54 97 38 97 C32 84 32 84 30 79 C18.78 79 7.56 79 -4 79 C-6.26142851 84.54855996 -6.26142851 84.54855996 -8.51733398 90.09936523 C-8.93994507 91.13105835 -8.93994507 91.13105835 -9.37109375 92.18359375 C-9.65911865 92.89056396 -9.94714355 93.59753418 -10.24389648 94.32592773 C-11 96 -11 96 -12 97 C-14.21855264 97.08783542 -16.43988496 97.10694609 -18.66015625 97.09765625 C-19.65685585 97.09553383 -19.65685585 97.09553383 -20.6736908 97.09336853 C-22.80333899 97.08775518 -24.93288339 97.07520054 -27.0625 97.0625 C-28.50325369 97.05748671 -29.94400903 97.05292351 -31.38476562 97.04882812 C-34.92321102 97.03778145 -38.46159539 97.02050792 -42 97 C-41.45670631 93.03176564 -40.64330676 89.77465751 -38.91015625 86.16796875 C-38.46470459 85.22550293 -38.01925293 84.28303711 -37.56030273 83.31201172 C-37.06602783 82.28092285 -36.57175293 81.24983398 -36.0625 80.1875 C-34.96766619 77.86231219 -33.87567517 75.53604955 -32.7890625 73.20703125 C-32.49380173 72.57462524 -32.19854095 71.94221924 -31.89433289 71.29064941 C-27.75849839 62.38593969 -23.864438 53.37316154 -19.9375 44.375 C-13.4432443 29.50840676 -6.82347771 14.71921619 0 0 Z " fill="#BAB88C" transform="translate(899,232)"/>
<path d="M0 0 C12.21 0 24.42 0 37 0 C37 51.48 37 102.96 37 156 C24.79 156 12.58 156 0 156 C0 104.52 0 53.04 0 0 Z " fill="#B7B68C" transform="translate(347,193)"/>
<path d="M0 0 C3.14385613 2.80512416 5.74900165 5.73455789 8.3203125 9.0703125 C5.43043439 13.04389491 2.13600506 16.12567143 -1.5859375 19.28515625 C-2.96304328 20.45929308 -4.3183595 21.65956345 -5.6484375 22.88671875 C-6.256875 23.44230469 -6.8653125 23.99789062 -7.4921875 24.5703125 C-8.03488281 25.075625 -8.57757812 25.5809375 -9.13671875 26.1015625 C-9.64589844 26.42125 -10.15507813 26.7409375 -10.6796875 27.0703125 C-13.6796875 26.0703125 -13.6796875 26.0703125 -15.4296875 23.7578125 C-19.41396004 18.9988203 -22.31186009 17.33808775 -28.41015625 16.6484375 C-35.25548666 16.30649357 -41.57988363 16.23902356 -47.203125 20.6484375 C-52.90548655 26.13960047 -54.95294584 31.47022921 -55.1171875 39.3828125 C-55.00883933 45.71034534 -53.72442755 50.16566709 -49.6796875 55.0703125 C-43.85049412 59.90730275 -37.81942976 61.61844015 -30.33984375 61.44921875 C-24.10223302 60.5607485 -18.61376484 57.5715352 -14.5546875 52.7578125 C-13.9359375 51.8709375 -13.3171875 50.9840625 -12.6796875 50.0703125 C-8.28417754 51.47280142 -5.89755611 53.55796121 -2.7421875 56.8828125 C0.79805571 60.53947627 4.32846217 63.91885172 8.3203125 67.0703125 C3.10945612 75.97219216 -4.34455787 81.00427725 -13.6796875 85.0703125 C-14.45957031 85.42480469 -15.23945312 85.77929688 -16.04296875 86.14453125 C-27.1378999 90.04008485 -43.95250403 89.98693825 -54.6796875 85.0703125 C-55.5665625 84.668125 -56.4534375 84.2659375 -57.3671875 83.8515625 C-69.78993877 77.64018686 -78.28150824 68.73582134 -83.4921875 55.8828125 C-87.8765831 41.80659505 -86.92892099 27.17440701 -80.171875 14.16796875 C-72.98450596 1.982871 -62.29523209 -5.53210922 -48.93359375 -9.80859375 C-31.41136365 -13.62241248 -14.27432028 -11.20640667 0 0 Z " fill="#BAB88C" transform="translate(1075.6796875,241.9296875)"/>
<path d="M0 0 C28.05 0 56.1 0 85 0 C85 8.58 85 17.16 85 26 C75.76 26 66.52 26 57 26 C57 49.43 57 72.86 57 97 C47.1 97 37.2 97 27 97 C27 73.57 27 50.14 27 26 C18.09 26 9.18 26 0 26 C0 17.42 0 8.84 0 0 Z " fill="#B9B88C" transform="translate(1107,232)"/>
<path d="M0 0 C9.57 0 19.14 0 29 0 C29 31.68 29 63.36 29 96 C19.43 96 9.86 96 0 96 C0 64.32 0 32.64 0 0 Z " fill="#B5B48B" transform="translate(530,233)"/>
<path d="M0 0 C7.92 0 15.84 0 24 0 C24 32.01 24 64.02 24 97 C14.76 97 5.52 97 -4 97 C-4.33 84.13 -4.66 71.26 -5 58 C-11.71475704 69.93431631 -11.71475704 69.93431631 -18.1875 82 C-20.6488622 85.68562235 -22.24848606 87.62560942 -26.22265625 89.60546875 C-30.43614792 90.30071821 -33.41037812 90.33680356 -37 88 C-41.89154511 82.64246948 -45.26961392 76.1346849 -48.57470703 69.72241211 C-50.2960499 66.4345234 -52.15871393 63.22225062 -54 60 C-54.33 72.21 -54.66 84.42 -55 97 C-64.24 97 -73.48 97 -83 97 C-83 65.32 -83 33.64 -83 1 C-75.08 1 -67.16 1 -59 1 C-53.10766654 7.65487073 -53.10766654 7.65487073 -51.64453125 11.3125 C-48.46953534 18.49567547 -44.27643654 25.0777811 -40.21353149 31.78222656 C-38.05328156 35.3614811 -35.92925764 38.96199185 -33.8046875 42.5625 C-33.06500074 43.81383716 -32.32526066 45.0651428 -31.58544922 46.31640625 C-31.06225098 47.20199219 -30.53905273 48.08757812 -30 49 C-22.63971852 37.45111099 -15.67239131 25.69973275 -8.80297852 13.85473633 C-8.44236328 13.23498428 -8.08174805 12.61523224 -7.71020508 11.97669983 C-6.71900748 10.27302854 -5.73063 8.56771741 -4.74243164 6.86230469 C-3 4 -3 4 0 0 Z M-79 5 C-79 33.71 -79 62.42 -79 92 C-72.73 92 -66.46 92 -60 92 C-59.67 75.83 -59.34 59.66 -59 43 C-51.5 55.6875 -51.5 55.6875 -49.18945312 59.6003418 C-48.20365676 61.26582811 -47.21676595 62.93073568 -46.21447754 64.58634949 C-44.38586629 67.61286238 -42.64660623 70.64714813 -41.03515625 73.79541016 C-37.86884509 80.00243806 -37.86884509 80.00243806 -32.56103516 84.25341797 C-29.3928188 84.69026708 -27.86135253 84.45003281 -25 83 C-21.5196015 79.18600444 -19.24508241 74.85248493 -16.875 70.3125 C-16.22100905 69.11978522 -15.56347925 67.92900372 -14.90234375 66.74023438 C-13.65106555 64.48871436 -12.42703829 62.22963912 -11.21826172 59.9543457 C-7.98996845 54.19948482 -4.45826079 48.61967379 -1 43 C-0.67 59.17 -0.34 75.34 0 92 C6.27 92 12.54 92 19 92 C19 63.29 19 34.58 19 5 C13.39 5 7.78 5 2 5 C-2.20393145 9.6049429 -2.20393145 9.6049429 -5.08276367 14.55175781 C-5.39684174 15.20744751 -5.7109198 15.86313721 -6.03451538 16.53869629 C-6.35312531 17.20655151 -6.67173523 17.87440674 -7 18.5625 C-7.70343334 19.90939679 -8.4135181 21.25284017 -9.13012695 22.59277344 C-10.51991897 25.20808595 -11.87714776 27.83591317 -13.20556641 30.48291016 C-15.35372888 34.69330861 -17.70387591 38.73169403 -20.1875 42.75 C-20.79980469 43.77609375 -21.41210938 44.8021875 -22.04296875 45.859375 C-24.60354704 49.9685665 -27.29476916 53.98502719 -30 58 C-30.44166504 57.24195068 -30.88333008 56.48390137 -31.33837891 55.70288086 C-39.13592608 42.33090411 -46.9520909 28.97338938 -55 15.75 C-55.59248535 14.77538818 -56.1849707 13.80077637 -56.79541016 12.79663086 C-59.10579242 8.67962211 -59.10579242 8.67962211 -62 5 C-67.61 5 -73.22 5 -79 5 Z " fill="#334478" transform="translate(684,232)"/>
<path d="M0 0 C3.3 0 6.6 0 10 0 C10 86.79 10 173.58 10 263 C6.7 263 3.4 263 0 263 C0 176.21 0 89.42 0 0 Z " fill="#B7B68C" transform="translate(300,144)"/>
<path d="M0 0 C7.92 0 15.84 0 24 0 C27.67882396 5.51823595 31.2568201 10.9626604 34.6015625 16.66796875 C35.20718521 17.69293205 35.20718521 17.69293205 35.82504272 18.73860168 C37.09408342 20.88683631 38.35984334 23.03697604 39.625 25.1875 C40.89760094 27.34855239 42.17097683 29.50913382 43.44638062 31.66853333 C44.23390755 33.00207512 45.01984461 34.33655766 45.80386353 35.67216492 C47.5455995 38.62310883 49.32667646 41.50698238 51.27099609 44.3293457 C53 47 53 47 53 49 C53.66 49 54.32 49 55 49 C55.42079834 47.89797241 55.42079834 47.89797241 55.85009766 46.77368164 C56.89286911 44.25841063 58.04727862 41.98077939 59.3984375 39.62109375 C59.8723291 38.7914209 60.3462207 37.96174805 60.83447266 37.10693359 C61.34284668 36.22602051 61.8512207 35.34510742 62.375 34.4375 C63.16269775 33.06585693 63.16269775 33.06585693 63.96630859 31.66650391 C77.24715504 8.62926744 77.24715504 8.62926744 83 0 C90.92 0 98.84 0 107 0 C107 31.68 107 63.36 107 96 C97.76 96 88.52 96 79 96 C78.67 83.79 78.34 71.58 78 59 C72.77777219 67.83972613 72.77777219 67.83972613 67.55883789 76.68139648 C66.91164795 77.77524658 66.26445801 78.86909668 65.59765625 79.99609375 C64.93258057 81.12200928 64.26750488 82.2479248 63.58227539 83.40795898 C62 86 62 86 61 87 C55.99798345 87.96826152 50.91119945 88.62237109 46 87 C41.63192546 82.93892016 39.29042927 78.31011143 36.5625 73 C34.066875 68.38 31.57125 63.76 29 59 C28.67 71.21 28.34 83.42 28 96 C18.76 96 9.52 96 0 96 C0 64.32 0 32.64 0 0 Z M86 4 C81.80041512 8.38997941 81.80041512 8.38997941 78.91699219 13.14550781 C78.44585999 14.09037048 78.44585999 14.09037048 77.96520996 15.05432129 C77.64669067 15.69639526 77.32817139 16.33846924 77 17 C76.29674642 18.29594809 75.58738942 19.5886021 74.87207031 20.87792969 C73.47881754 23.41131285 72.12191768 25.95858168 70.79882812 28.52929688 C68.91148341 32.17078609 66.9182175 35.73342778 64.87475586 39.28857422 C63.80857849 41.14784684 62.76980115 43.0197744 61.73828125 44.8984375 C60.2144775 47.61731431 58.61955629 50.25228965 56.9375 52.875 C54.82435344 55.67048564 54.82435344 55.67048564 55 58 C54.34 58 53.68 58 53 58 C52.7525 57.31784424 52.505 56.63568848 52.25 55.93286133 C50.77384472 52.46937434 48.93039837 49.29646788 47 46.07421875 C46.60835663 45.41331741 46.21671326 44.75241608 45.8132019 44.07148743 C43.68062372 40.47925701 41.52639408 36.90037771 39.36376953 33.32617188 C38.49485279 31.88818056 37.62619778 30.45003107 36.7578125 29.01171875 C36.33323761 28.30949188 35.90866272 27.60726501 35.47122192 26.88375854 C32.79194549 22.41917717 30.31625274 17.91316457 28.12060547 13.18676758 C26.43418919 10.2261187 24.14859496 7.64442457 22 5 C16.39 5 10.78 5 5 5 C5 33.71 5 62.42 5 92 C11.27 92 17.54 92 24 92 C24.33 75.83 24.66 59.66 25 43 C32.5625 55.8125 32.5625 55.8125 34.90063477 59.78051758 C41.29385679 73.2981409 41.29385679 73.2981409 50.97973633 82.58105469 C54.06468 82.99502963 56.021075 82.96763225 59 82 C62.73493251 77.89672314 65.13156814 73.14408579 67.6875 68.25 C68.39816531 66.95248883 69.1123331 65.65688957 69.83007812 64.36328125 C71.17718547 61.92738247 72.49754737 59.48322219 73.8034668 57.02441406 C76.75398543 51.61857332 79.8968468 46.31969121 83 41 C83.33 57.83 83.66 74.66 84 92 C90.27 92 96.54 92 103 92 C103 62.96 103 33.92 103 4 C97.39 4 91.78 4 86 4 Z " fill="#314276" transform="translate(628,102)"/>
<path d="M0 0 C24.75 0 49.5 0 75 0 C75 8.25 75 16.5 75 25 C60.15 25 45.3 25 30 25 C30 28.3 30 31.6 30 35 C43.2 35 56.4 35 70 35 C70 43.25 70 51.5 70 60 C56.47 60 42.94 60 29 60 C29 63.63 29 67.26 29 71 C44.84 71 60.68 71 77 71 C77 79.25 77 87.5 77 96 C51.59 96 26.18 96 0 96 C0 64.32 0 32.64 0 0 Z M5 5 C5 33.71 5 62.42 5 92 C27.11 92 49.22 92 72 92 C72 86.39 72 80.78 72 75 C56.49 75 40.98 75 25 75 C25 68.4 25 61.8 25 55 C38.2 55 51.4 55 65 55 C65 50.05 65 45.1 65 40 C51.8 40 38.6 40 25 40 C25 33.73 25 27.46 25 21 C39.85 21 54.7 21 70 21 C70 15.72 70 10.44 70 5 C48.55 5 27.1 5 5 5 Z " fill="#314375" transform="translate(890,102)"/>
<path d="M0 0 C24.75 0 49.5 0 75 0 C75 8.25 75 16.5 75 25 C59.82 25 44.64 25 29 25 C29 28.3 29 31.6 29 35 C42.53 35 56.06 35 70 35 C70 43.25 70 51.5 70 60 C56.47 60 42.94 60 29 60 C29 63.63 29 67.26 29 71 C44.51 71 60.02 71 76 71 C76 79.25 76 87.5 76 96 C50.92 96 25.84 96 0 96 C0 64.32 0 32.64 0 0 Z M4 4 C4 33.04 4 62.08 4 92 C26.44 92 48.88 92 72 92 C72 86.39 72 80.78 72 75 C56.49 75 40.98 75 25 75 C25 68.4 25 61.8 25 55 C38.2 55 51.4 55 65 55 C65 50.05 65 45.1 65 40 C51.47 40 37.94 40 24 40 C24 33.73 24 27.46 24 21 C39.18 21 54.36 21 70 21 C70 15.39 70 9.78 70 4 C48.22 4 26.44 4 4 4 Z " fill="#2E3F74" transform="translate(777,102)"/>
<path d="M0 0 C170.94 0 341.88 0 518 0 C518 1.32 518 2.64 518 4 C347.06 4 176.12 4 0 4 C0 2.68 0 1.36 0 0 Z " fill="#51608C" transform="translate(597,428)"/>
<path d="M0 0 C3.14385613 2.80512416 5.74900165 5.73455789 8.3203125 9.0703125 C5.43043439 13.04389491 2.13600506 16.12567143 -1.5859375 19.28515625 C-2.96304328 20.45929308 -4.3183595 21.65956345 -5.6484375 22.88671875 C-6.256875 23.44230469 -6.8653125 23.99789062 -7.4921875 24.5703125 C-8.03488281 25.075625 -8.57757812 25.5809375 -9.13671875 26.1015625 C-9.64589844 26.42125 -10.15507813 26.7409375 -10.6796875 27.0703125 C-13.6796875 26.0703125 -13.6796875 26.0703125 -15.4296875 23.7578125 C-19.41396004 18.9988203 -22.31186009 17.33808775 -28.41015625 16.6484375 C-35.25548666 16.30649357 -41.57988363 16.23902356 -47.203125 20.6484375 C-52.90548655 26.13960047 -54.95294584 31.47022921 -55.1171875 39.3828125 C-55.00883933 45.71034534 -53.72442755 50.16566709 -49.6796875 55.0703125 C-43.85049412 59.90730275 -37.81942976 61.61844015 -30.33984375 61.44921875 C-24.10223302 60.5607485 -18.61376484 57.5715352 -14.5546875 52.7578125 C-13.9359375 51.8709375 -13.3171875 50.9840625 -12.6796875 50.0703125 C-8.28417754 51.47280142 -5.89755611 53.55796121 -2.7421875 56.8828125 C0.79805571 60.53947627 4.32846217 63.91885172 8.3203125 67.0703125 C3.10945612 75.97219216 -4.34455787 81.00427725 -13.6796875 85.0703125 C-14.45957031 85.42480469 -15.23945312 85.77929688 -16.04296875 86.14453125 C-27.1378999 90.04008485 -43.95250403 89.98693825 -54.6796875 85.0703125 C-55.5665625 84.668125 -56.4534375 84.2659375 -57.3671875 83.8515625 C-69.78993877 77.64018686 -78.28150824 68.73582134 -83.4921875 55.8828125 C-87.8765831 41.80659505 -86.92892099 27.17440701 -80.171875 14.16796875 C-72.98450596 1.982871 -62.29523209 -5.53210922 -48.93359375 -9.80859375 C-31.41136365 -13.62241248 -14.27432028 -11.20640667 0 0 Z M-70.9921875 9.3203125 C-79.69506174 19.60873063 -81.45674204 30.91404 -80.85888672 44.00439453 C-79.85498662 55.57796764 -74.01253763 65.54107069 -65.73046875 73.4375 C-52.92392182 83.6339507 -38.40221973 84.47043766 -22.6796875 83.0703125 C-13.14388029 81.32866075 -5.33518069 75.88715098 1.3203125 69.0703125 C-0.22971497 65.18633561 -2.68445371 63.04051631 -5.8046875 60.3203125 C-6.71476562 59.52109375 -7.62484375 58.721875 -8.5625 57.8984375 C-9.61050781 56.99351562 -9.61050781 56.99351562 -10.6796875 56.0703125 C-11.164375 56.46863281 -11.6490625 56.86695313 -12.1484375 57.27734375 C-20.57593268 63.93830629 -27.10404885 65.79188184 -37.98046875 65.54296875 C-45.41578329 64.5929444 -50.48452286 60.89256264 -55.1796875 55.1953125 C-60.08129607 47.8844387 -60.87807546 39.23345058 -59.21484375 30.6796875 C-57.04718693 23.13778092 -52.97824189 18.1274494 -46.2421875 14.1328125 C-38.87140023 10.78649731 -30.34495089 10.53138146 -22.671875 13.0625 C-18.09036473 15.26436016 -14.69950986 17.85445461 -10.6796875 21.0703125 C-6.7196875 17.4403125 -2.7596875 13.8103125 1.3203125 10.0703125 C-2.78593694 1.85781363 -10.22869087 -1.91233309 -18.6796875 -4.9296875 C-38.11933465 -9.25569348 -57.05199508 -5.21805982 -70.9921875 9.3203125 Z " fill="#344577" transform="translate(1075.6796875,241.9296875)"/>
<path d="M0 0 C8.085 -0.103125 16.17 -0.20625 24.5 -0.3125 C27.01689453 -0.35802002 29.53378906 -0.40354004 32.12695312 -0.45043945 C47.06964767 -0.60784337 62.28719257 -0.38394572 74.16796875 10.04296875 C81.42348266 17.79352839 84.35637656 25.36217666 84.3125 35.875 C84.32861328 36.63941406 84.34472656 37.40382812 84.36132812 38.19140625 C84.36778648 45.79934262 82.38153934 51.855781 77.5625 57.8125 C76.98628906 58.54082031 76.41007812 59.26914063 75.81640625 60.01953125 C74.01838464 61.97995481 72.17810083 63.48250997 70 65 C71.3967597 67.94885337 73.00434284 70.58589148 74.86328125 73.265625 C75.42080078 74.07386719 75.97832031 74.88210937 76.55273438 75.71484375 C77.13345703 76.55144531 77.71417969 77.38804687 78.3125 78.25 C82.3566295 84.08490485 86.28459579 89.94939803 90 96 C61.48171204 98.3779467 61.48171204 98.3779467 54.43798828 94.640625 C50.83158693 91.35349706 48.75933886 87.44386858 46.91210938 82.97607422 C45.91185972 80.80904512 44.6881943 79.04203379 43.265625 77.12890625 C41 74 41 74 41 72 C37.04 72 33.08 72 29 72 C29 79.92 29 87.84 29 96 C19.43 96 9.86 96 0 96 C0 64.32 0 32.64 0 0 Z M4 5 C4 33.71 4 62.42 4 92 C10.6 92 17.2 92 24 92 C24 83.75 24 75.5 24 67 C37.72641883 65.91373664 37.72641883 65.91373664 43 68 C49.41243367 73.52055054 54.22476862 82.20748115 57.14453125 90.08984375 C59.55177157 92.56803431 60.70221722 92.35082977 64.10546875 92.48828125 C66.13338658 92.4550367 68.16100447 92.39539629 70.1875 92.3125 C71.22326172 92.28994141 72.25902344 92.26738281 73.32617188 92.24414062 C75.88556404 92.18516846 78.44205951 92.10292567 81 92 C79.59290377 89.02890414 77.96838978 86.36821237 76.1015625 83.6640625 C75.53953125 82.84679687 74.9775 82.02953125 74.3984375 81.1875 C73.52058594 79.9190625 73.52058594 79.9190625 72.625 78.625 C71.47104451 76.95073422 70.31739174 75.27625975 69.1640625 73.6015625 C68.62040039 72.81297852 68.07673828 72.02439453 67.51660156 71.21191406 C65.65137145 68.4915366 63.81925437 65.75128617 62 63 C62.66 62.814375 63.32 62.62875 64 62.4375 C69.89966503 59.61057717 74.63996333 55.58934694 77.5 49.625 C80.45597327 40.95591246 80.80160562 29.80296635 77 21.375 C71.94630235 13.10658912 64.61419431 8.06505332 55.29815674 5.45553589 C46.36471939 3.68476836 36.72895546 4.51881056 27.6875 4.6875 C19.870625 4.790625 12.05375 4.89375 4 5 Z " fill="#304275" transform="translate(1004,102)"/>
<path d="M0 0 C8.58 0 17.16 0 26 0 C30.74624808 9.28866956 35.05103477 18.70562145 39.25 28.25 C40.65313189 31.42918962 42.05859272 34.60734522 43.46484375 37.78515625 C43.82821335 38.60671707 44.19158295 39.42827789 44.56596375 40.2747345 C47.32752796 46.50816631 50.12703642 52.72384647 52.94140625 58.93359375 C53.55328293 60.28534195 53.55328293 60.28534195 54.17752075 61.66439819 C56.58136297 66.97427542 56.58136297 66.97427542 58.99401855 72.28015137 C60.11058448 74.73059349 61.22172896 77.18343358 62.33203125 79.63671875 C62.65949844 80.35097519 62.98696564 81.06523163 63.32435608 81.8011322 C65.5935852 86.83211996 67.23290423 91.6987127 69 97 C58.77 97 48.54 97 38 97 C32 84 32 84 30 79 C18.78 79 7.56 79 -4 79 C-6.26142851 84.54855996 -6.26142851 84.54855996 -8.51733398 90.09936523 C-8.93994507 91.13105835 -8.93994507 91.13105835 -9.37109375 92.18359375 C-9.65911865 92.89056396 -9.94714355 93.59753418 -10.24389648 94.32592773 C-11 96 -11 96 -12 97 C-14.21855264 97.08783542 -16.43988496 97.10694609 -18.66015625 97.09765625 C-19.65685585 97.09553383 -19.65685585 97.09553383 -20.6736908 97.09336853 C-22.80333899 97.08775518 -24.93288339 97.07520054 -27.0625 97.0625 C-28.50325369 97.05748671 -29.94400903 97.05292351 -31.38476562 97.04882812 C-34.92321102 97.03778145 -38.46159539 97.02050792 -42 97 C-41.45670631 93.03176564 -40.64330676 89.77465751 -38.91015625 86.16796875 C-38.46470459 85.22550293 -38.01925293 84.28303711 -37.56030273 83.31201172 C-37.06602783 82.28092285 -36.57175293 81.24983398 -36.0625 80.1875 C-34.96766619 77.86231219 -33.87567517 75.53604955 -32.7890625 73.20703125 C-32.49380173 72.57462524 -32.19854095 71.94221924 -31.89433289 71.29064941 C-27.75849839 62.38593969 -23.864438 53.37316154 -19.9375 44.375 C-13.4432443 29.50840676 -6.82347771 14.71921619 0 0 Z M3 5 C-3.21405061 17.93540803 -9.14431715 30.96896429 -14.875 44.125 C-16.05204833 46.81977915 -17.22986794 49.51422042 -18.40768433 52.20866394 C-19.18241154 53.98129708 -19.95677001 55.75409143 -20.73074341 57.52705383 C-23.00740099 62.74016742 -25.29905701 67.94625269 -27.609375 73.14453125 C-28.12773926 74.31290527 -28.64610352 75.4812793 -29.18017578 76.68505859 C-30.11848857 78.79729296 -31.05942013 80.90836666 -32.00341797 83.01806641 C-32.40705566 83.92862793 -32.81069336 84.83918945 -33.2265625 85.77734375 C-33.57283691 86.55327881 -33.91911133 87.32921387 -34.27587891 88.12866211 C-35.12029268 89.97644543 -35.12029268 89.97644543 -35 92 C-28.4 92 -21.8 92 -15 92 C-14.05125 89.958125 -13.1025 87.91625 -12.125 85.8125 C-11.59132813 84.66394531 -11.05765625 83.51539063 -10.5078125 82.33203125 C-9.26545048 79.58660429 -8.11916426 76.79791064 -7 74 C6.2 74 19.4 74 33 74 C35.31 79.61 37.62 85.22 40 91 C41.00559794 92.22784809 41.00559794 92.22784809 43.04125977 92.11352539 C43.91580811 92.10828857 44.79035645 92.10305176 45.69140625 92.09765625 C46.63564453 92.09443359 47.57988281 92.09121094 48.55273438 92.08789062 C50.04256836 92.07532227 50.04256836 92.07532227 51.5625 92.0625 C52.55958984 92.05798828 53.55667969 92.05347656 54.58398438 92.04882812 C57.05604849 92.03700007 59.52799518 92.02051849 62 92 C57.42826386 80.73960235 52.4473465 69.66128722 47.5 58.5625 C46.60696257 56.55698948 45.71397793 54.55145545 44.82104492 52.54589844 C42.62168208 47.60738566 40.42021543 42.66981368 38.21820068 37.73248291 C37.08285054 35.18583776 35.94860379 32.63870544 34.81494141 30.09130859 C33.26048446 26.598378 31.70391452 23.10640014 30.14501953 19.615448 C29.3271046 17.78272491 28.51119019 15.94910944 27.6953125 14.11547852 C27.21449219 13.04096436 26.73367188 11.9664502 26.23828125 10.859375 C25.82618408 9.93608398 25.41408691 9.01279297 24.98950195 8.06152344 C24.16749684 6.05699788 24.16749684 6.05699788 23 5 C21.5112814 4.91330568 20.018555 4.89296506 18.52734375 4.90234375 C17.71773193 4.90484131 16.90812012 4.90733887 16.07397461 4.90991211 C14.52141968 4.92356812 14.52141968 4.92356812 12.9375 4.9375 C11.16479709 4.94898847 9.39209181 4.9601147 7.61938477 4.97094727 C5.30969238 4.98547363 5.30969238 4.98547363 3 5 Z " fill="#364779" transform="translate(899,232)"/>
<path d="M0 0 C28.05 0 56.1 0 85 0 C85 8.58 85 17.16 85 26 C75.76 26 66.52 26 57 26 C57 49.43 57 72.86 57 97 C47.1 97 37.2 97 27 97 C27 73.57 27 50.14 27 26 C18.09 26 9.18 26 0 26 C0 17.42 0 8.84 0 0 Z M4 5 C4 10.61 4 16.22 4 22 C13.24 22 22.48 22 32 22 C32 45.1 32 68.2 32 92 C38.6 92 45.2 92 52 92 C52 68.57 52 45.14 52 21 C61.24 21 70.48 21 80 21 C80 15.72 80 10.44 80 5 C54.92 5 29.84 5 4 5 Z " fill="#38497B" transform="translate(1107,232)"/>
<path d="M0 0 C170.28 0 340.56 0 516 0 C516 0.99 516 1.98 516 3 C345.72 3 175.44 3 0 3 C0 2.01 0 1.02 0 0 Z " fill="#38497C" transform="translate(598,358)"/>
<path d="M0 0 C8.023125 -0.061875 16.04625 -0.12375 24.3125 -0.1875 C26.82270752 -0.21481201 29.33291504 -0.24212402 31.91918945 -0.27026367 C33.94221518 -0.27903778 35.96524627 -0.28667952 37.98828125 -0.29296875 C39.01159546 -0.30831665 40.03490967 -0.32366455 41.0892334 -0.33947754 C53.82496664 -0.34403198 66.80146223 3.39220734 76.3984375 12.125 C84.1890884 21.24576203 85.72365437 30.39472801 85 42 C83.58888967 50.44274489 79.54019216 58.07903126 73.125 63.8125 C59.62057385 73.2655983 45.98518103 73.32402394 30 73 C30 80.92 30 88.84 30 97 C20.1 97 10.2 97 0 97 C0 64.99 0 32.98 0 0 Z M5 5 C5 33.71 5 62.42 5 92 C11.6 92 18.2 92 25 92 C25 84.08 25 76.16 25 68 C28.691875 68.061875 32.38375 68.12375 36.1875 68.1875 C49.50744933 68.25734578 61.76163564 67.75571271 71.93359375 58.1796875 C79.16815737 50.50894436 80.56354074 43.86446993 80.2734375 33.3984375 C79.52765156 24.1293837 75.93474542 18.21003328 69 12 C60.42954876 6.07453772 50.13246981 4.5413187 39.9609375 4.70703125 C39.06673096 4.71005249 38.17252441 4.71307373 37.2512207 4.71618652 C33.95902717 4.73170387 30.66700011 4.77358557 27.375 4.8125 C19.99125 4.874375 12.6075 4.93625 5 5 Z " fill="#37487A" transform="translate(749,232)"/>
<path d="M0 0 C9.57 0 19.14 0 29 0 C29 31.68 29 63.36 29 96 C19.43 96 9.86 96 0 96 C0 64.32 0 32.64 0 0 Z M4 4 C4 32.71 4 61.42 4 91 C10.93 91 17.86 91 25 91 C25 62.29 25 33.58 25 4 C18.07 4 11.14 4 4 4 Z " fill="#2C3D74" transform="translate(530,233)"/>
<path d="M0 0 C5.09090909 2.09090909 5.09090909 2.09090909 7 4 C7.33 2.68 7.66 1.36 8 0 C9.32 0 10.64 0 12 0 C12.07462728 4.28666736 12.12882508 8.57298207 12.16479492 12.86010742 C12.17980313 14.31590368 12.20021633 15.77165532 12.22631836 17.22729492 C12.26305676 19.33002789 12.2798056 21.43215885 12.29296875 23.53515625 C12.3086792 24.797229 12.32438965 26.05930176 12.34057617 27.35961914 C11.86959805 32.39385194 10.72143433 36.56057539 6.7109375 39.9140625 C0.64779404 42.34281449 -7.19351393 42.08780346 -13.25 39.625 C-16 38 -16 38 -17 36 C-16.67 35.34 -16.34 34.68 -16 34 C-10.25 35.875 -10.25 35.875 -8 37 C-3.12403678 37.03869812 1.46450023 36.92844172 5.6875 34.375 C7.46861567 31.15202879 7.27836061 28.61868789 7 25 C6.401875 25.474375 5.80375 25.94875 5.1875 26.4375 C1.11441746 29.34684467 -3.14344462 29.6338519 -8 29 C-12.03313757 27.57701799 -14.57611604 25.46735924 -17.4375 22.3125 C-19.45876794 18.02741196 -19.81940711 14.65724245 -19 10 C-14.98012813 1.8056458 -8.83062541 -1.35613176 0 0 Z " fill="#37487B" transform="translate(879,386)"/>
<path d="M0 0 C1.32 0 2.64 0 4 0 C4.33 1.32 4.66 2.64 5 4 C5.61875 3.34 6.2375 2.68 6.875 2 C11.26066112 -0.80682311 14.92153093 -0.7988603 20 0 C24.83858548 2.32968931 27.67031069 5.16141452 30 10 C30.81503266 15.10642912 30.61497311 18.83367169 28.1875 23.4375 C22.83563818 29.70682385 22.83563818 29.70682385 17.6953125 30.23828125 C16.42300781 30.27501953 16.42300781 30.27501953 15.125 30.3125 C14.28195312 30.34988281 13.43890625 30.38726562 12.5703125 30.42578125 C10 30 10 30 5 26 C4.67 30.95 4.34 35.9 4 41 C2.68 41 1.36 41 0 41 C0 27.47 0 13.94 0 0 Z " fill="#F9F9FB" transform="translate(1048,386)"/>
<path d="M0 0 C3.0625 1.5625 3.0625 1.5625 5 4 C5.625 7.4375 5.625 7.4375 5 11 C2.6875 13.75 2.6875 13.75 0 16 C-1.00823003 16.99170167 -2.01021073 17.98989248 -3 19 C-1.54474941 20.48219967 -0.085701 21.96067139 1.375 23.4375 C2.18710937 24.26121094 2.99921875 25.08492188 3.8359375 25.93359375 C5.82348515 28.03434672 5.82348515 28.03434672 8 29 C8.33 26.69 8.66 24.38 9 22 C10.32 22.33 11.64 22.66 13 23 C12.48518284 25.57408582 11.98195627 28.05690715 11.1875 30.5625 C10.6997634 33.18901334 10.6997634 33.18901334 12.9375 35.3125 C13.618125 35.869375 14.29875 36.42625 15 37 C14.67 37.99 14.34 38.98 14 40 C11.50638429 38.79618552 9.31856917 37.54571278 7 36 C6.278125 36.66 5.55625 37.32 4.8125 38 C-0.17171279 41.33073885 -6.28083046 40.7402986 -12 40 C-15.23965143 38.73488065 -17.4063503 37.1872994 -19 34 C-19.68180322 27.18196775 -19.68180322 27.18196775 -17.98828125 24.24609375 C-16.74406139 22.75527176 -15.37306833 21.37306833 -14 20 C-13.401875 19.38125 -12.80375 18.7625 -12.1875 18.125 C-11.795625 17.75375 -11.40375 17.3825 -11 17 C-11.495 16.34 -11.99 15.68 -12.5 15 C-14.57342659 10.85314682 -14.58651804 8.61882953 -14 4 C-10.31851893 -0.75029816 -5.59879369 -0.98206689 0 0 Z " fill="#38497C" transform="translate(934,376)"/>
<path d="M0 0 C4.65702344 2.45552145 8.31667974 4.95003921 10 10 C10.72759384 16.8226832 10.24910861 21.52088627 6 27 C1.09655454 30.61920974 -4.12233771 30.71870912 -10 30 C-14.72403852 28.0487667 -17.72471109 24.55057782 -20 20 C-20.54035594 15.0747885 -20.54435469 11.13058282 -18.375 6.625 C-12.87402184 0.54497151 -8.06800671 -1.32498972 0 0 Z " fill="#FAFAFB" transform="translate(1029,386)"/>
<path d="M0 0 C5 1 5 1 6.9128418 3.484375 C7.79709839 5.10085938 7.79709839 5.10085938 8.69921875 6.75 C9.02034134 7.32331055 9.34146393 7.89662109 9.6723175 8.48730469 C10.69349289 10.31647431 11.69128568 12.15713575 12.6875 14 C13.69824099 15.84041789 14.71366584 17.67803359 15.7348175 19.51269531 C16.657684 21.17517792 17.56684783 22.84524489 18.4753418 24.515625 C19.7604019 27.10036849 19.7604019 27.10036849 22 28 C22.56714722 26.9941687 22.56714722 26.9941687 23.14575195 25.96801758 C24.86730184 22.91578326 26.58989058 19.86413646 28.3125 16.8125 C29.20485352 15.22985352 29.20485352 15.22985352 30.11523438 13.61523438 C30.69208984 12.59365234 31.26894531 11.57207031 31.86328125 10.51953125 C32.39219971 9.58214111 32.92111816 8.64475098 33.46606445 7.67895508 C33.97226318 6.7948999 34.47846191 5.91084473 35 5 C35.47719482 4.06115967 35.95438965 3.12231934 36.44604492 2.1550293 C36.9588501 1.44386963 37.47165527 0.73270996 38 0 C39.32 0 40.64 0 42 0 C42 13.2 42 26.4 42 40 C40.68 40 39.36 40 38 40 C37.67 30.1 37.34 20.2 37 10 C33.8886687 15.60824796 33.8886687 15.60824796 30.77832031 21.21704102 C28.21730903 25.83009124 25.62834078 30.42496756 23 35 C21.21582031 34.83422852 21.21582031 34.83422852 19 34 C17.26074219 31.68334961 17.26074219 31.68334961 15.546875 28.65234375 C14.98838867 27.68031006 14.42990234 26.70827637 13.85449219 25.70678711 C13.16000977 24.46292236 12.46552734 23.21905762 11.75 21.9375 C8.40875 16.0284375 8.40875 16.0284375 5 10 C4.67 19.9 4.34 29.8 4 40 C2.68 40 1.36 40 0 40 C0 26.8 0 13.6 0 0 Z " fill="#36477B" transform="translate(606,376)"/>
<path d="M0 0 C3.91647565 2.041214 6.34775186 4.17326575 7.96875 8.2734375 C7.96875 10.5834375 7.96875 12.8934375 7.96875 15.2734375 C-0.28125 15.2734375 -8.53125 15.2734375 -17.03125 15.2734375 C-14.50179205 21.07798671 -14.50179205 21.07798671 -10.03125 24.2734375 C-3.8292375 25.6968502 -0.63898749 25.19413411 4.96875 22.2734375 C5.29875 23.5934375 5.62875 24.9134375 5.96875 26.2734375 C0.52382511 29.80528067 -4.73485288 30.24211398 -11.03125 29.2734375 C-15.15012596 27.53054966 -17.45514106 25.10972468 -19.96875 21.4609375 C-21.56921283 16.659549 -22.10701517 12.74814008 -20.08203125 8.08984375 C-15.50369405 0.21857001 -8.97378262 -3.20985301 0 0 Z " fill="#3B4B7E" transform="translate(769.03125,386.7265625)"/>
<path d="M0 0 C3.11655839 1.69651364 5.38960148 3.77920296 7 7 C7.08449628 8.7404417 7.10723024 10.48409722 7.09765625 12.2265625 C7.09443359 13.2578125 7.09121094 14.2890625 7.08789062 15.3515625 C7.07951172 16.43179687 7.07113281 17.51203125 7.0625 18.625 C7.05798828 19.71296875 7.05347656 20.8009375 7.04882812 21.921875 C7.03701776 24.61463789 7.02054778 27.30729188 7 30 C5.68 30 4.36 30 3 30 C2.67 29.01 2.34 28.02 2 27 C1.38125 27.495 0.7625 27.99 0.125 28.5 C-4.28381814 30.61623271 -8.19280986 30.82746716 -13 30 C-16.125 27.9375 -16.125 27.9375 -18 25 C-18.5625 21.4375 -18.5625 21.4375 -18 18 C-16.13291495 15.63502561 -14.67938569 14.33969285 -12 13 C-9.44842345 12.9283265 -6.92527029 12.90691558 -4.375 12.9375 C-3.31539062 12.94426758 -3.31539062 12.94426758 -2.234375 12.95117188 C-0.48954725 12.96296125 1.255237 12.98089676 3 13 C2.34 10.36 1.68 7.72 1 5 C-1.08304538 4.94581674 -3.16649768 4.90712449 -5.25 4.875 C-6.41015625 4.85179687 -7.5703125 4.82859375 -8.765625 4.8046875 C-11.82786046 4.9896051 -13.44202751 5.39176977 -16 7 C-16.33 5.68 -16.66 4.36 -17 3 C-11.39971211 0.07811067 -6.31801696 -1.14306228 0 0 Z " fill="#38497C" transform="translate(676,386)"/>
<path d="M0 0 C2.866875 -0.061875 5.73375 -0.12375 8.6875 -0.1875 C10.02880981 -0.22846802 10.02880981 -0.22846802 11.3972168 -0.27026367 C16.11847334 -0.3195041 19.15164086 -0.03895282 23 3 C25.49040942 5.49040942 25.32391014 6.43154357 25.375 9.875 C25.30131497 13.2841605 25.25110772 14.62798856 23.3125 17.5 C18.16471391 20.83910449 13.72400558 21.26416661 7.6875 21.125 C3.8821875 21.063125 3.8821875 21.063125 0 21 C0 14.07 0 7.14 0 0 Z " fill="#FAFBFC" transform="translate(1033,128)"/>
<path d="M0 0 C2.495625 -0.061875 4.99125 -0.12375 7.5625 -0.1875 C8.33408447 -0.21481201 9.10566895 -0.24212402 9.90063477 -0.27026367 C15.00102098 -0.33071173 18.49566986 0.56323124 23 3 C25.67433178 7.01149768 25.81902411 10.28440661 25 15 C22.3210618 18.5719176 20.33291118 20.20277294 16 21 C13.23811597 21.0693244 10.50980431 21.09394997 7.75 21.0625 C5.1925 21.041875 2.635 21.02125 0 21 C0 14.07 0 7.14 0 0 Z " fill="#FBFCFC" transform="translate(779,258)"/>
<path d="M0 0 C3.465 -0.061875 6.93 -0.12375 10.5 -0.1875 C12.11358398 -0.22846802 12.11358398 -0.22846802 13.75976562 -0.27026367 C19.90422112 -0.32297902 24.43615626 0.33517837 30 3 C33.74522126 6.84125258 35.14109862 10.05698273 35.25 15.375 C35.19098458 19.42083471 34.64722201 21.80507688 32 25 C27.5024196 29.04782236 24.43790738 30.1293011 18.45703125 30.09765625 C17.00647339 30.09390991 17.00647339 30.09390991 15.52661133 30.09008789 C14.30095459 30.08098389 13.07529785 30.07187988 11.8125 30.0625 C5.9653125 30.0315625 5.9653125 30.0315625 0 30 C0 20.1 0 10.2 0 0 Z M5 5 C5 11.93 5 18.86 5 26 C17.6909413 26.81983592 17.6909413 26.81983592 29 22 C30.8457676 18.30846481 30.48175083 14.02978061 30 10 C27.80873184 6.90200019 26.58943664 6.19647888 23 5 C21.59175107 4.91978001 20.18002769 4.89234023 18.76953125 4.90234375 C17.68442261 4.90609009 17.68442261 4.90609009 16.57739258 4.90991211 C15.20877075 4.92356812 15.20877075 4.92356812 13.8125 4.9375 C10.904375 4.958125 7.99625 4.97875 5 5 Z " fill="#324376" transform="translate(1028,123)"/>
<path d="M0 0 C4.00125 -0.0825 8.0025 -0.165 12.125 -0.25 C13.37555176 -0.28641602 14.62610352 -0.32283203 15.91455078 -0.36035156 C22.25919369 -0.42372644 26.23971657 -0.37152695 31 4 C34.67213845 8.15531456 35.65535778 11.41873732 35.3828125 16.82421875 C34.51760201 21.74179263 31.82797543 24.36176894 28 27.3125 C23.86229025 29.63996173 20.72859376 30.12639386 16.015625 30.09765625 C15.17290039 30.09515869 14.33017578 30.09266113 13.46191406 30.09008789 C12.40198242 30.08098389 11.34205078 30.07187988 10.25 30.0625 C6.8675 30.041875 3.485 30.02125 0 30 C0 20.1 0 10.2 0 0 Z M5 4 C5 10.93 5 17.86 5 25 C7.495625 25.061875 9.99125 25.12375 12.5625 25.1875 C13.33408447 25.21481201 14.10566895 25.24212402 14.90063477 25.27026367 C20.00102098 25.33071173 23.49566986 24.43676876 28 22 C30.67673561 17.98489659 30.6923699 14.71837262 30 10 C27.59100264 6.52033714 24.97214296 5.25748548 21 4 C18.18156537 3.86197676 15.49667223 3.81023687 12.6875 3.875 C10.150625 3.91625 7.61375 3.9575 5 4 Z " fill="#324376" transform="translate(774,254)"/>
<path d="M0 0 C0.66 0 1.32 0 2 0 C3.71577309 4.0722992 5.42456771 8.14743388 7.12695312 12.2253418 C7.70707279 13.61221066 8.28909253 14.99828632 8.87304688 16.38354492 C9.71204306 18.374734 10.54416662 20.36867484 11.375 22.36328125 C12.12910156 24.16212769 12.12910156 24.16212769 12.8984375 25.99731445 C14 29 14 29 14 32 C5.42 32 -3.16 32 -12 32 C-11.20194736 27.21168416 -10.36363137 24.06268434 -8.49609375 19.7265625 C-8.00302734 18.57285156 -7.50996094 17.41914063 -7.00195312 16.23046875 C-6.48568359 15.04066406 -5.96941406 13.85085938 -5.4375 12.625 C-4.91736328 11.41199219 -4.39722656 10.19898438 -3.86132812 8.94921875 C-2.58008244 5.96356367 -1.29280626 2.98066312 0 0 Z " fill="#344577" transform="translate(911,258)"/>
<path d="M0 0 C1.32 0 2.64 0 4 0 C4.33 1.32 4.66 2.64 5 4 C5.61875 3.34 6.2375 2.68 6.875 2 C11.26066112 -0.80682311 14.92153093 -0.7988603 20 0 C24.83858548 2.32968931 27.67031069 5.16141452 30 10 C30.81503266 15.10642912 30.61497311 18.83367169 28.1875 23.4375 C22.83563818 29.70682385 22.83563818 29.70682385 17.6953125 30.23828125 C16.42300781 30.27501953 16.42300781 30.27501953 15.125 30.3125 C14.28195312 30.34988281 13.43890625 30.38726562 12.5703125 30.42578125 C10 30 10 30 5 26 C4.67 30.95 4.34 35.9 4 41 C2.68 41 1.36 41 0 41 C0 27.47 0 13.94 0 0 Z M5 8 C3.27552804 11.44894392 3.63328904 15.22156745 4 19 C5.59289552 22.66365969 7.44448653 25.123479 11 27 C15.2957372 27.55685482 17.46193678 27.28425982 21.3125 25.25 C25.34417692 21.87464258 25.86701149 20.37421462 26.375 15.125 C26.27878896 10.83559093 24.74661664 8.31209653 22 5 C16.18514995 2.09257498 9.30346837 3.28006695 5 8 Z " fill="#34467A" transform="translate(1048,386)"/>
<path d="M0 0 C3.00197464 1.80118478 4.45166366 2.90332732 6 6 C6.34708476 11.29304255 6.51351894 14.73358414 3 19 C-1.20394014 21.54566951 -5.20451197 21.70219646 -10 21 C-13.47485838 18.92987161 -15.74352278 16.88365688 -17 13 C-17.49494564 8.34751094 -16.80764101 5.74352135 -14 2 C-9.55139766 -0.9657349 -5.21856465 -0.64087636 0 0 Z " fill="#F9FAFB" transform="translate(881,390)"/>
<path d="M0 0 C2.91779281 1.73825955 3.94611634 2.55554155 4.9375 5.75 C0.9375 5.75 0.9375 5.75 -1.47265625 4.7734375 C-5.91483577 3.01800608 -10.3647915 3.19124172 -15.0625 3.75 C-19.58677549 5.93134711 -21.87253914 8.25481717 -24.0625 12.75 C-25.30365911 16.47347734 -25.6045862 19.88214172 -25.0625 23.75 C-22.52829412 28.3814797 -20.13152315 32.06032562 -15.0625 33.75 C-13.10774991 33.8947963 -11.1473862 33.97067502 -9.1875 34 C-8.15882813 34.02578125 -7.13015625 34.0515625 -6.0703125 34.078125 C-2.67573682 33.70780765 -0.92804251 32.51789402 1.9375 30.75 C2.9275 31.08 3.9175 31.41 4.9375 31.75 C4.9375 32.74 4.9375 33.73 4.9375 34.75 C-1.91780253 39.05136629 -8.0311291 39.91309491 -16.0625 38.75 C-21.21200276 36.76504159 -25.15292983 33.45007489 -28.0625 28.75 C-30.06170663 23.55206277 -31.11166528 18.26271931 -30.0625 12.75 C-27.32948594 6.87873186 -23.75251266 2.78467342 -18.0625 -0.25 C-12.37621342 -2.14542886 -5.63263501 -2.18190493 0 0 Z " fill="#3A4A7D" transform="translate(998.0625,377.25)"/>
<path d="M0 0 C1.32 0 2.64 0 4 0 C4.33 8.91 4.66 17.82 5 27 C10.05375217 22.07704682 10.05375217 22.07704682 15.08081055 17.12695312 C15.71801025 16.51787109 16.35520996 15.90878906 17.01171875 15.28125 C17.65584717 14.65283203 18.29997559 14.02441406 18.96362305 13.37695312 C21.47595791 11.67816777 23.0277734 11.72918209 26 12 C25.62488281 12.43570312 25.24976563 12.87140625 24.86328125 13.3203125 C24.09564453 14.21363281 24.09564453 14.21363281 23.3125 15.125 C22.56419922 15.99511719 22.56419922 15.99511719 21.80078125 16.8828125 C19.51356096 19.5719088 17.25698014 22.28547193 15 25 C15.39380859 25.47945068 15.78761719 25.95890137 16.19335938 26.45288086 C17.96476126 28.6123665 19.73242317 30.77488262 21.5 32.9375 C22.12003906 33.69224609 22.74007812 34.44699219 23.37890625 35.22460938 C23.96542969 35.94326172 24.55195312 36.66191406 25.15625 37.40234375 C25.70087891 38.06741943 26.24550781 38.73249512 26.80664062 39.41772461 C28 41 28 41 28 42 C25.7578125 42.265625 25.7578125 42.265625 23 42 C20.8671875 40.171875 20.8671875 40.171875 18.875 37.75 C18.21242188 36.96109375 17.54984375 36.1721875 16.8671875 35.359375 C15.94292969 34.19148438 15.94292969 34.19148438 15 33 C14.42507813 32.28328125 13.85015625 31.5665625 13.2578125 30.828125 C12 29 12 29 12 27 C7.02101434 30.29218903 7.02101434 30.29218903 4.3125 35.40234375 C4.08839516 37.6188807 3.96536114 39.77321644 4 42 C2.68 42 1.36 42 0 42 C0 28.14 0 14.28 0 0 Z " fill="#314277" transform="translate(717,374)"/>
<path d="M0 0 C1.32 0 2.64 0 4 0 C4.33 1.32 4.66 2.64 5 4 C5.804375 3.34 6.60875 2.68 7.4375 2 C11.45704031 -0.67651855 15.31531923 -0.71872182 20 0 C23.76136974 1.63537815 25.84828959 3.53754723 28 7 C28.34057617 9.56542969 28.34057617 9.56542969 28.29296875 12.421875 C28.28330078 13.44667969 28.27363281 14.47148437 28.26367188 15.52734375 C28.23853516 16.59082031 28.21339844 17.65429688 28.1875 18.75 C28.16719727 20.36841797 28.16719727 20.36841797 28.14648438 22.01953125 C28.11116584 24.6801942 28.06184199 27.33984296 28 30 C26.68 30 25.36 30 24 30 C23.98541748 29.38479492 23.97083496 28.76958984 23.95581055 28.13574219 C23.88119423 25.33987146 23.7845802 22.54517713 23.6875 19.75 C23.66494141 18.78191406 23.64238281 17.81382812 23.61914062 16.81640625 C23.5659668 15.41455078 23.5659668 15.41455078 23.51171875 13.984375 C23.48553467 13.12553711 23.45935059 12.26669922 23.43237305 11.38183594 C22.91355908 8.52381839 21.98083485 7.10170138 20 5 C17.59573489 4.47960605 17.59573489 4.47960605 15 4.6875 C14.13375 4.71199219 13.2675 4.73648437 12.375 4.76171875 C9.85299218 4.92681195 9.85299218 4.92681195 7 6 C6.04831317 8.85506049 5.8099054 10.90937282 5.68359375 13.88671875 C5.64169922 14.82451172 5.59980469 15.76230469 5.55664062 16.72851562 C5.51732422 17.70498047 5.47800781 18.68144531 5.4375 19.6875 C5.39431641 20.67556641 5.35113281 21.66363281 5.30664062 22.68164062 C5.20058346 25.12095546 5.09852286 27.56037113 5 30 C3.35 30 1.7 30 0 30 C0 20.1 0 10.2 0 0 Z " fill="#3D4E80" transform="translate(824,386)"/>
<path d="M0 0 C4.65702344 2.45552145 8.31667974 4.95003921 10 10 C10.72759384 16.8226832 10.24910861 21.52088627 6 27 C1.09655454 30.61920974 -4.12233771 30.71870912 -10 30 C-14.72403852 28.0487667 -17.72471109 24.55057782 -20 20 C-20.54035594 15.0747885 -20.54435469 11.13058282 -18.375 6.625 C-12.87402184 0.54497151 -8.06800671 -1.32498972 0 0 Z M-13.0625 6.375 C-16.12881821 10.52936661 -16.6930782 13.89210861 -16 19 C-14.36086596 22.16118708 -12.99730125 24.26864575 -10.125 26.375 C-5.63356315 27.69601084 -2.89855304 27.48383625 1.25 25.25 C4.40822777 22.66599546 5.71538373 20.85000573 6.3359375 16.81640625 C6.40703353 12.71416548 6.35398847 10.56638155 4.125 7 C0.42853343 3.52097264 -2.59608228 3.61218834 -7.515625 3.640625 C-10.30865776 3.83608381 -10.30865776 3.83608381 -13.0625 6.375 Z " fill="#36477B" transform="translate(1029,386)"/>
<path d="M0 0 C2.33276367 0.19311523 2.33276367 0.19311523 5 1 C6.4855957 3.13305664 6.4855957 3.13305664 7.67578125 5.91015625 C8.32836914 7.39418945 8.32836914 7.39418945 8.99414062 8.90820312 C9.42919922 9.94912109 9.86425781 10.99003906 10.3125 12.0625 C10.76689453 13.10728516 11.22128906 14.15207031 11.68945312 15.22851562 C12.81021258 17.8121611 13.91268054 20.40214532 15 23 C17.18639521 20.26632529 18.71054657 17.68588702 20.04296875 14.453125 C20.56987305 13.18662109 20.56987305 13.18662109 21.10742188 11.89453125 C21.64206055 10.58548828 21.64206055 10.58548828 22.1875 9.25 C22.73954102 7.91775391 22.73954102 7.91775391 23.30273438 6.55859375 C24.20692623 4.374442 25.10581317 2.1882624 26 0 C27.32 0 28.64 0 30 0 C29.3342745 4.52955479 27.63244529 8.4634036 25.76171875 12.6015625 C25.43967972 13.31984222 25.11764069 14.03812195 24.7858429 14.77816772 C24.1052184 16.29054555 23.42174365 17.80164351 22.7355957 19.31152344 C21.69011886 21.61921936 20.66217444 23.93421414 19.63476562 26.25 C18.96981043 27.72183371 18.3038291 29.19320436 17.63671875 30.6640625 C17.33239426 31.35472809 17.02806976 32.04539368 16.71452332 32.75698853 C15.01808297 36.44000171 13.60422879 39.01068567 10 41 C7.640625 41.29296875 7.640625 41.29296875 5.25 41.1875 C4.45078125 41.16042969 3.6515625 41.13335937 2.828125 41.10546875 C2.22484375 41.07066406 1.6215625 41.03585937 1 41 C0.34 39.68 -0.32 38.36 -1 37 C2.06542271 35.46728864 4.69080243 36.46816468 8 37 C8.66 37 9.32 37 10 37 C12.07484588 32.85030825 12.00303843 30.48370847 11 26 C10.22900063 23.96818793 9.38999835 21.96128547 8.49609375 19.98046875 C8.00302734 18.87638672 7.50996094 17.77230469 7.00195312 16.63476562 C6.48568359 15.49716797 5.96941406 14.35957031 5.4375 13.1875 C4.41393547 10.91079822 3.39172154 8.63348857 2.37109375 6.35546875 C1.91661865 5.35153076 1.46214355 4.34759277 0.99389648 3.31323242 C0 1 0 1 0 0 Z " fill="#37487B" transform="translate(1081,386)"/>
<path d="M0 0 C1.65 0 3.3 0 5 0 C5 2.31 5 4.62 5 7 C7.97 7 10.94 7 14 7 C14 8.32 14 9.64 14 11 C11.03 11 8.06 11 5 11 C5.13818532 14.47951523 5.28682601 17.95850495 5.4375 21.4375 C5.47681641 22.43072266 5.51613281 23.42394531 5.55664062 24.44726562 C5.61948242 25.86362305 5.61948242 25.86362305 5.68359375 27.30859375 C5.72025146 28.18314209 5.75690918 29.05769043 5.79467773 29.95874023 C5.78181066 31.9927402 5.78181066 31.9927402 7 33 C9.67058851 33.14115161 12.32432238 33.04247107 15 33 C15 33.99 15 34.98 15 36 C11.80508241 37.59745879 8.46790611 37.50816842 5 37 C2.03141843 34.79259319 1.17134209 33.51402627 0 30 C-0.0806622 28.51876453 -0.10761193 27.03417796 -0.09765625 25.55078125 C-0.09443359 24.70322266 -0.09121094 23.85566406 -0.08789062 22.98242188 C-0.07951172 22.10134766 -0.07113281 21.22027344 -0.0625 20.3125 C-0.05798828 19.41982422 -0.05347656 18.52714844 -0.04882812 17.60742188 C-0.03704983 15.40488013 -0.02060164 13.20247401 0 11 C-1.65 11 -3.3 11 -5 11 C-5 9.68 -5 8.36 -5 7 C-3.35 7 -1.7 7 0 7 C0 4.69 0 2.38 0 0 Z " fill="#495887" transform="translate(786,379)"/>
<path d="M0 0 C3.12251936 1.383322 5.01869747 3.55459177 7.375 6.00390625 C8.26703125 6.92300781 9.1590625 7.84210938 10.078125 8.7890625 C10.75359375 9.49933594 11.4290625 10.20960938 12.125 10.94140625 C8.54460985 14.76871986 6.57826483 15.82420747 1.25 16.25390625 C-1.8497247 16.19671576 -3.0079348 15.87216938 -5.875 14.37890625 C-7.875 11.94140625 -7.875 11.94140625 -8.5625 8.50390625 C-7.87156521 4.92360778 -7.65179589 4.24959894 -5.125 1.94140625 C-1.875 -0.05859375 -1.875 -0.05859375 0 0 Z " fill="#FAFAFB" transform="translate(926.875,397.05859375)"/>
<path d="M0 0 C1.32 0 2.64 0 4 0 C4.33 0.99 4.66 1.98 5 3 C5.721875 2.505 6.44375 2.01 7.1875 1.5 C10.14848659 -0.07919285 11.71253029 -0.28178312 15 0 C15 1.32 15 2.64 15 4 C13.3603125 4.37125 13.3603125 4.37125 11.6875 4.75 C7.76528604 6.07956405 7.01163879 6.56915778 5 10 C4.50348204 12.30746465 4.50348204 12.30746465 4.48828125 14.765625 C4.45283203 15.65507812 4.41738281 16.54453125 4.38085938 17.4609375 C4.35830078 18.38132812 4.33574219 19.30171875 4.3125 20.25 C4.27833984 21.18585938 4.24417969 22.12171875 4.20898438 23.0859375 C4.12667838 25.39050533 4.0574737 27.69470119 4 30 C2.68 30 1.36 30 0 30 C0 20.1 0 10.2 0 0 Z " fill="#2F4076" transform="translate(694,386)"/>
<path d="M0 0 C1.90845703 0.04060547 1.90845703 0.04060547 3.85546875 0.08203125 C5.31919922 0.13423828 5.31919922 0.13423828 6.8125 0.1875 C7.125 5.828125 7.125 5.828125 4.3125 9.0625 C0.46461659 11.89585833 -2.52797124 11.79858574 -7.1875 11.1875 C-9.1875 10 -9.1875 10 -10.1875 8.1875 C-10.6013927 5.4282153 -10.65513912 3.90341298 -9.11328125 1.54296875 C-6.15363009 -0.54019343 -3.55829662 -0.09793477 0 0 Z " fill="#F7F7F9" transform="translate(672.1875,401.8125)"/>
<path d="M0 0 C3.125 2.25 3.125 2.25 5 5 C5 6.32 5 7.64 5 9 C-1.6 9 -8.2 9 -15 9 C-14 4 -14 4 -12.5625 1.6875 C-8.55981367 -0.94841539 -4.64425166 -0.87783109 0 0 Z " fill="#FBFCFD" transform="translate(768,390)"/>
<path d="M0 0 C1.32 0 2.64 0 4 0 C4 9.9 4 19.8 4 30 C2.68 30 1.36 30 0 30 C0 20.1 0 10.2 0 0 Z " fill="#2D3E75" transform="translate(809,386)"/>
<path d="M0 0 C3.5 0.25 3.5 0.25 5.5 2.25 C6 5.0625 6 5.0625 5.5 8.25 C3.67441392 10.40598356 1.88023615 11.63143942 -0.5 13.25 C-1.16 13.25 -1.82 13.25 -2.5 13.25 C-6.54674047 8.27829028 -6.54674047 8.27829028 -6.375 4.5 C-4.9161468 0.74866319 -4.05749357 0.28982097 0 0 Z " fill="#F4F5F7" transform="translate(929.5,378.75)"/>
<path d="M0 0 C0.66 0 1.32 0 2 0 C2.83986084 1.93467942 3.67168027 3.87285129 4.5 5.8125 C4.9640625 6.89144531 5.428125 7.97039062 5.90625 9.08203125 C7 12 7 12 7 15 C3.04 15 -0.92 15 -5 15 C-4.23239022 11.16195111 -3.40495674 8.23779856 -1.9375 4.6875 C-1.39416016 3.36298828 -1.39416016 3.36298828 -0.83984375 2.01171875 C-0.56269531 1.34785156 -0.28554688 0.68398438 0 0 Z " fill="#F4F5F7" transform="translate(911,270)"/>
<path d="M0 0 C1.65 0.33 3.3 0.66 5 1 C4.67 2.32 4.34 3.64 4 5 C2.35 4.67 0.7 4.34 -1 4 C-0.67 2.68 -0.34 1.36 0 0 Z " fill="#37487C" transform="translate(809,374)"/>
</svg>
