<svg xmlns="http://www.w3.org/2000/svg" xmlns:xlink="http://www.w3.org/1999/xlink" width="1024" zoomAndPan="magnify" viewBox="0 0 768 431.999984" height="576" preserveAspectRatio="xMidYMid meet" version="1.0"><defs><g/><clipPath id="aacd097a46"><path d="M 111 31.261719 L 157 31.261719 L 157 401 L 111 401 Z M 111 31.261719 " clip-rule="nonzero"/></clipPath><clipPath id="8b24fd7cb8"><path d="M 147 35 L 230.199219 35 L 230.199219 393 L 147 393 Z M 147 35 " clip-rule="nonzero"/></clipPath><clipPath id="acc786ce31"><rect x="0" width="408" y="0" height="219"/></clipPath></defs><rect x="-76.8" width="921.6" fill="#ffffff" y="-43.199998" height="518.399981" fill-opacity="1"/><rect x="-76.8" width="921.6" fill="#ffffff" y="-43.199998" height="518.399981" fill-opacity="1"/><g clip-path="url(#aacd097a46)"><path fill="#000000" d="M 114.058594 31.261719 C 220.125 173.074219 88.035156 226.953125 146.355469 400.714844 C 52.5 228.109375 188.839844 190.785156 114.058594 31.261719 Z M 114.058594 31.261719 " fill-opacity="1" fill-rule="nonzero"/></g><g clip-path="url(#8b24fd7cb8)"><path fill="#70a9a1" d="M 182.410156 392.179688 C 175.632812 392.179688 170.117188 386.664062 170.117188 379.886719 C 170.117188 373.109375 175.632812 367.597656 182.410156 367.597656 C 189.1875 367.597656 194.703125 373.109375 194.703125 379.886719 C 194.703125 386.664062 189.1875 392.179688 182.410156 392.179688 Z M 177.886719 332.382812 C 177.886719 325.605469 172.371094 320.089844 165.59375 320.089844 C 158.816406 320.089844 153.300781 325.605469 153.300781 332.382812 C 153.300781 339.160156 158.816406 344.675781 165.59375 344.675781 C 172.375 344.675781 177.886719 339.160156 177.886719 332.382812 Z M 171.785156 284.878906 C 171.785156 278.101562 166.269531 272.585938 159.496094 272.585938 C 152.71875 272.585938 147.203125 278.101562 147.203125 284.878906 C 147.203125 291.65625 152.71875 297.167969 159.496094 297.167969 C 166.269531 297.167969 171.785156 291.65625 171.785156 284.878906 Z M 180.367188 237.367188 C 180.367188 230.589844 174.855469 225.078125 168.078125 225.078125 C 161.300781 225.078125 155.785156 230.589844 155.785156 237.367188 C 155.785156 244.144531 161.300781 249.660156 168.078125 249.660156 C 174.855469 249.660156 180.367188 244.144531 180.367188 237.367188 Z M 194.078125 189.863281 C 194.078125 183.085938 188.5625 177.570312 181.785156 177.570312 C 175.007812 177.570312 169.492188 183.085938 169.492188 189.863281 C 169.492188 196.640625 175.007812 202.15625 181.785156 202.15625 C 188.5625 202.15625 194.078125 196.640625 194.078125 189.863281 Z M 206.820312 142.359375 C 206.820312 135.582031 201.308594 130.066406 194.53125 130.066406 C 187.753906 130.066406 182.238281 135.582031 182.238281 142.359375 C 182.238281 149.132812 187.753906 154.648438 194.53125 154.648438 C 201.308594 154.648438 206.820312 149.132812 206.820312 142.359375 Z M 194.078125 94.851562 C 194.078125 88.074219 188.5625 82.558594 181.785156 82.558594 C 175.007812 82.558594 169.492188 88.074219 169.492188 94.851562 C 169.492188 101.628906 175.007812 107.144531 181.785156 107.144531 C 188.5625 107.144531 194.078125 101.628906 194.078125 94.851562 Z M 180.367188 47.34375 C 180.367188 40.566406 174.855469 35.050781 168.078125 35.050781 C 161.300781 35.050781 155.785156 40.566406 155.785156 47.34375 C 155.785156 54.121094 161.300781 59.636719 168.078125 59.636719 C 174.855469 59.636719 180.367188 54.121094 180.367188 47.34375 Z M 218.148438 379.886719 C 218.148438 376.816406 215.648438 374.320312 212.578125 374.320312 C 209.511719 374.320312 207.011719 376.820312 207.011719 379.886719 C 207.011719 382.960938 209.511719 385.457031 212.578125 385.457031 C 215.648438 385.457031 218.148438 382.960938 218.148438 379.886719 Z M 201.332031 332.382812 C 201.332031 329.3125 198.832031 326.816406 195.765625 326.816406 C 192.691406 326.816406 190.195312 329.316406 190.195312 332.382812 C 190.195312 335.449219 192.695312 337.949219 195.765625 337.949219 C 198.832031 337.949219 201.332031 335.449219 201.332031 332.382812 Z M 195.230469 284.878906 C 195.230469 281.804688 192.730469 279.308594 189.664062 279.308594 C 186.59375 279.308594 184.097656 281.808594 184.097656 284.878906 C 184.097656 287.949219 186.597656 290.445312 189.664062 290.445312 C 192.730469 290.445312 195.230469 287.945312 195.230469 284.878906 Z M 203.808594 237.367188 C 203.808594 234.296875 201.3125 231.800781 198.242188 231.800781 C 195.171875 231.800781 192.675781 234.300781 192.675781 237.367188 C 192.675781 240.441406 195.175781 242.933594 198.242188 242.933594 C 201.3125 242.933594 203.808594 240.441406 203.808594 237.367188 Z M 217.523438 189.863281 C 217.523438 186.792969 215.023438 184.296875 211.957031 184.296875 C 208.882812 184.296875 206.386719 186.796875 206.386719 189.863281 C 206.386719 192.933594 208.886719 195.429688 211.957031 195.429688 C 215.023438 195.429688 217.523438 192.933594 217.523438 189.863281 Z M 230.265625 142.359375 C 230.265625 139.285156 227.769531 136.789062 224.699219 136.789062 C 221.628906 136.789062 219.132812 139.289062 219.132812 142.359375 C 219.132812 145.429688 221.632812 147.925781 224.699219 147.925781 C 227.769531 147.925781 230.265625 145.425781 230.265625 142.359375 Z M 217.523438 94.851562 C 217.523438 91.78125 215.023438 89.285156 211.957031 89.285156 C 208.882812 89.285156 206.386719 91.785156 206.386719 94.851562 C 206.386719 97.921875 208.886719 100.417969 211.957031 100.417969 C 215.023438 100.417969 217.523438 97.921875 217.523438 94.851562 Z M 203.808594 47.34375 C 203.808594 44.273438 201.3125 41.777344 198.242188 41.777344 C 195.171875 41.777344 192.675781 44.273438 192.675781 47.34375 C 192.675781 50.414062 195.175781 52.910156 198.242188 52.910156 C 201.3125 52.910156 203.808594 50.414062 203.808594 47.34375 Z M 203.808594 47.34375 " fill-opacity="1" fill-rule="nonzero"/></g><g transform="matrix(1, 0, 0, 1, 287, 105)"><g clip-path="url(#acc786ce31)"><g fill="#000000" fill-opacity="1"><g transform="translate(0.102511, 79.939249)"><g><path d="M 9.125 -71.734375 L 37.859375 -71.734375 C 42.828125 -71.734375 47.25 -70.945312 51.125 -69.375 C 55.007812 -67.800781 58.066406 -65.421875 60.296875 -62.234375 C 62.535156 -59.054688 63.65625 -55.09375 63.65625 -50.34375 C 63.65625 -45.164062 62.378906 -40.722656 59.828125 -37.015625 C 57.273438 -33.316406 53.847656 -30.488281 49.546875 -28.53125 C 45.253906 -26.570312 40.453125 -25.59375 35.140625 -25.59375 L 25.0625 -25.59375 L 25.0625 0 L 9.125 0 Z M 25.0625 -36.5 L 34.921875 -36.5 C 38.703125 -36.5 41.742188 -37.632812 44.046875 -39.90625 C 46.359375 -42.175781 47.515625 -45.164062 47.515625 -48.875 C 47.515625 -52.71875 46.34375 -55.671875 44 -57.734375 C 41.65625 -59.796875 38.488281 -60.828125 34.5 -60.828125 L 25.0625 -60.828125 Z M 25.0625 -36.5 "/></g></g></g><g fill="#000000" fill-opacity="1"><g transform="translate(66.459873, 79.939249)"><g><path d="M 21.390625 -40.90625 C 23.628906 -43.90625 26.054688 -46.242188 28.671875 -47.921875 C 31.296875 -49.597656 33.832031 -50.4375 36.28125 -50.4375 C 37.40625 -50.4375 38.472656 -50.398438 39.484375 -50.328125 C 40.492188 -50.265625 41.457031 -50.09375 42.375 -49.8125 L 42.375 -36.703125 C 40.625 -37.054688 39.132812 -37.265625 37.90625 -37.328125 C 36.6875 -37.398438 35.519531 -37.4375 34.40625 -37.4375 C 32.375 -37.4375 30.222656 -36.789062 27.953125 -35.5 C 25.679688 -34.207031 23.707031 -32.648438 22.03125 -30.828125 L 22.03125 0 L 6.921875 0 L 6.921875 -31.984375 C 6.921875 -33.242188 6.898438 -34.9375 6.859375 -37.0625 C 6.828125 -39.195312 6.757812 -41.398438 6.65625 -43.671875 C 6.550781 -45.953125 6.394531 -47.929688 6.1875 -49.609375 L 20.34375 -49.609375 C 20.625 -48.066406 20.832031 -46.578125 20.96875 -45.140625 C 21.113281 -43.710938 21.253906 -42.300781 21.390625 -40.90625 Z M 21.390625 -40.90625 "/></g></g></g><g fill="#000000" fill-opacity="1"><g transform="translate(109.125674, 79.939249)"><g><path d="M 46.671875 -14.375 C 46.671875 -12.550781 47 -11.21875 47.65625 -10.375 C 48.320312 -9.539062 49.492188 -9.125 51.171875 -9.125 C 51.878906 -9.125 52.53125 -9.175781 53.125 -9.28125 C 53.71875 -9.382812 54.363281 -9.507812 55.0625 -9.65625 L 55.0625 -1.359375 C 53.382812 -0.660156 51.566406 -0.0859375 49.609375 0.359375 C 47.648438 0.816406 45.65625 1.046875 43.625 1.046875 C 41.25 1.046875 39.082031 0.453125 37.125 -0.734375 C 35.164062 -1.921875 33.875 -3.597656 33.25 -5.765625 C 31.21875 -3.742188 28.976562 -2.117188 26.53125 -0.890625 C 24.082031 0.328125 21.359375 0.9375 18.359375 0.9375 C 13.253906 0.9375 9.457031 -0.441406 6.96875 -3.203125 C 4.488281 -5.960938 3.25 -9.367188 3.25 -13.421875 C 3.25 -15.867188 3.632812 -18.050781 4.40625 -19.96875 C 5.175781 -21.894531 6.222656 -23.3125 7.546875 -24.21875 C 8.671875 -24.988281 10.488281 -25.847656 13 -26.796875 C 15.519531 -27.742188 18.492188 -28.722656 21.921875 -29.734375 C 25.347656 -30.742188 28.984375 -31.671875 32.828125 -32.515625 C 32.828125 -35.171875 32.125 -37.25 30.71875 -38.75 C 29.320312 -40.25 27.085938 -41 24.015625 -41 C 21.429688 -41 18.722656 -40.507812 15.890625 -39.53125 C 13.054688 -38.550781 9.925781 -37.085938 6.5 -35.140625 L 6.5 -45.203125 C 9.851562 -47.085938 13.296875 -48.535156 16.828125 -49.546875 C 20.359375 -50.566406 23.875 -51.078125 27.375 -51.078125 C 30.9375 -51.078125 34.164062 -50.5 37.0625 -49.34375 C 39.96875 -48.1875 42.296875 -46.382812 44.046875 -43.9375 C 45.796875 -41.488281 46.671875 -38.3125 46.671875 -34.40625 Z M 17.296875 -15.203125 C 17.296875 -13.035156 17.890625 -11.410156 19.078125 -10.328125 C 20.273438 -9.242188 21.742188 -8.703125 23.484375 -8.703125 C 25.171875 -8.703125 26.832031 -9.117188 28.46875 -9.953125 C 30.113281 -10.796875 31.566406 -11.988281 32.828125 -13.53125 L 32.828125 -24.328125 C 30.660156 -23.984375 28.546875 -23.515625 26.484375 -22.921875 C 24.421875 -22.328125 22.671875 -21.765625 21.234375 -21.234375 C 19.804688 -20.710938 18.953125 -20.3125 18.671875 -20.03125 C 17.753906 -19.257812 17.296875 -17.648438 17.296875 -15.203125 Z M 17.296875 -15.203125 "/></g></g></g><g fill="#000000" fill-opacity="1"><g transform="translate(163.532461, 79.939249)"><g><path d="M 57.6875 0 L 39.859375 0 L 26.84375 -20.140625 L 21.703125 -20.140625 L 21.703125 0 L 6.921875 0 L 6.921875 -77.5 L 21.703125 -77.5 L 21.703125 -30.515625 L 25.90625 -30.515625 L 40.484375 -49.609375 L 56.734375 -49.609375 L 38.796875 -27.484375 Z M 57.6875 0 "/></g></g></g><g fill="#000000" fill-opacity="1"><g transform="translate(221.713095, 79.939249)"><g><path d="M 23.171875 -17.71875 C 23.171875 -14.71875 23.941406 -12.550781 25.484375 -11.21875 C 27.023438 -9.894531 29.613281 -9.234375 33.25 -9.234375 C 34.363281 -9.234375 35.550781 -9.300781 36.8125 -9.4375 C 38.070312 -9.582031 39.332031 -9.757812 40.59375 -9.96875 L 40.59375 -1.046875 C 38.769531 -0.484375 36.738281 -0.015625 34.5 0.359375 C 32.257812 0.742188 29.921875 0.9375 27.484375 0.9375 C 23.910156 0.9375 20.671875 0.429688 17.765625 -0.578125 C 14.867188 -1.585938 12.5625 -3.210938 10.84375 -5.453125 C 9.132812 -7.691406 8.28125 -10.59375 8.28125 -14.15625 L 8.28125 -39.859375 L 1.265625 -39.859375 L 1.265625 -49.609375 L 8.703125 -49.609375 L 11.953125 -61.765625 L 23.171875 -61.765625 L 23.171875 -49.609375 L 40.265625 -49.609375 L 40.265625 -39.859375 L 23.171875 -39.859375 Z M 23.171875 -17.71875 "/></g></g></g><g fill="#000000" fill-opacity="1"><g transform="translate(262.806438, 79.939249)"><g><path d="M 23.28125 -68.484375 C 23.28125 -66.109375 22.472656 -64.097656 20.859375 -62.453125 C 19.253906 -60.804688 17.226562 -59.984375 14.78125 -59.984375 C 12.40625 -59.984375 10.378906 -60.804688 8.703125 -62.453125 C 7.023438 -64.097656 6.1875 -66.109375 6.1875 -68.484375 C 6.1875 -70.859375 7.039062 -72.867188 8.75 -74.515625 C 10.46875 -76.160156 12.476562 -76.984375 14.78125 -76.984375 C 17.09375 -76.984375 19.085938 -76.160156 20.765625 -74.515625 C 22.441406 -72.867188 23.28125 -70.859375 23.28125 -68.484375 Z M 22.125 0 L 7.234375 0 L 7.234375 -49.609375 L 22.125 -49.609375 Z M 22.125 0 "/></g></g></g><g fill="#000000" fill-opacity="1"><g transform="translate(292.054, 79.939249)"><g><path d="M 23.90625 -68.484375 C 23.90625 -66.109375 23.082031 -64.097656 21.4375 -62.453125 C 19.800781 -60.804688 17.796875 -59.984375 15.421875 -59.984375 C 13.035156 -59.984375 11.003906 -60.804688 9.328125 -62.453125 C 7.648438 -64.097656 6.8125 -66.109375 6.8125 -68.484375 C 6.8125 -70.785156 7.648438 -72.773438 9.328125 -74.453125 C 11.003906 -76.140625 13 -76.984375 15.3125 -76.984375 C 17.6875 -76.984375 19.710938 -76.160156 21.390625 -74.515625 C 23.066406 -72.867188 23.90625 -70.859375 23.90625 -68.484375 Z M 22.765625 -0.3125 C 22.765625 4.375 21.992188 8.550781 20.453125 12.21875 C 18.910156 15.882812 16.320312 18.765625 12.6875 20.859375 C 9.050781 22.960938 4.050781 24.015625 -2.3125 24.015625 C -4.050781 24.015625 -5.722656 23.976562 -7.328125 23.90625 C -8.941406 23.84375 -10.445312 23.671875 -11.84375 23.390625 L -11.84375 12.0625 C -9.675781 12.550781 -7.789062 12.878906 -6.1875 13.046875 C -4.582031 13.222656 -3.007812 13.3125 -1.46875 13.3125 C 1.1875 13.3125 3.175781 12.804688 4.5 11.796875 C 5.832031 10.785156 6.722656 9.367188 7.171875 7.546875 C 7.628906 5.734375 7.859375 3.707031 7.859375 1.46875 L 7.859375 -49.609375 L 22.765625 -49.609375 Z M 22.765625 -0.3125 "/></g></g></g><g fill="#000000" fill-opacity="1"><g transform="translate(322.035394, 79.939249)"><g><path d="M 57.6875 0 L 39.859375 0 L 26.84375 -20.140625 L 21.703125 -20.140625 L 21.703125 0 L 6.921875 0 L 6.921875 -77.5 L 21.703125 -77.5 L 21.703125 -30.515625 L 25.90625 -30.515625 L 40.484375 -49.609375 L 56.734375 -49.609375 L 38.796875 -27.484375 Z M 57.6875 0 "/></g></g></g><g fill="#000000" fill-opacity="1"><g transform="translate(380.219029, 79.939249)"><g/></g></g><g fill="#000000" fill-opacity="1"><g transform="translate(0.102511, 190.377415)"><g><path d="M 1.78125 -71.734375 L 65.4375 -71.734375 L 65.4375 -59.359375 L 41.53125 -59.359375 L 41.53125 0 L 25.6875 0 L 25.6875 -59.359375 L 1.78125 -59.359375 Z M 1.78125 -71.734375 "/></g></g></g><g fill="#000000" fill-opacity="1"><g transform="translate(67.298554, 190.377415)"><g><path d="M 23.28125 -68.484375 C 23.28125 -66.109375 22.472656 -64.097656 20.859375 -62.453125 C 19.253906 -60.804688 17.226562 -59.984375 14.78125 -59.984375 C 12.40625 -59.984375 10.378906 -60.804688 8.703125 -62.453125 C 7.023438 -64.097656 6.1875 -66.109375 6.1875 -68.484375 C 6.1875 -70.859375 7.039062 -72.867188 8.75 -74.515625 C 10.46875 -76.160156 12.476562 -76.984375 14.78125 -76.984375 C 17.09375 -76.984375 19.085938 -76.160156 20.765625 -74.515625 C 22.441406 -72.867188 23.28125 -70.859375 23.28125 -68.484375 Z M 22.125 0 L 7.234375 0 L 7.234375 -49.609375 L 22.125 -49.609375 Z M 22.125 0 "/></g></g></g><g fill="#000000" fill-opacity="1"><g transform="translate(96.546117, 190.377415)"><g><path d="M 29.671875 -51.28125 C 36.390625 -51.28125 41.648438 -49.285156 45.453125 -45.296875 C 49.265625 -41.316406 51.171875 -35.515625 51.171875 -27.890625 L 51.171875 -23.90625 L 18.140625 -23.90625 C 18.492188 -19.15625 19.925781 -15.535156 22.4375 -13.046875 C 24.957031 -10.566406 28.457031 -9.328125 32.9375 -9.328125 C 36.007812 -9.328125 39.097656 -9.691406 42.203125 -10.421875 C 45.316406 -11.160156 48.203125 -12.09375 50.859375 -13.21875 L 50.859375 -3.78125 C 48.273438 -2.3125 45.113281 -1.101562 41.375 -0.15625 C 37.632812 0.789062 33.769531 1.265625 29.78125 1.265625 C 24.675781 1.265625 20.113281 0.25 16.09375 -1.78125 C 12.070312 -3.8125 8.90625 -6.75 6.59375 -10.59375 C 4.289062 -14.4375 3.140625 -19.050781 3.140625 -24.4375 C 3.140625 -29.46875 4.222656 -34.007812 6.390625 -38.0625 C 8.566406 -42.125 11.644531 -45.34375 15.625 -47.71875 C 19.613281 -50.09375 24.296875 -51.28125 29.671875 -51.28125 Z M 37.546875 -32.203125 C 37.191406 -39.117188 34.1875 -42.578125 28.53125 -42.578125 C 25.65625 -42.578125 23.289062 -41.613281 21.4375 -39.6875 C 19.59375 -37.769531 18.457031 -35.273438 18.03125 -32.203125 Z M 37.546875 -32.203125 "/></g></g></g><g fill="#000000" fill-opacity="1"><g transform="translate(151.057699, 190.377415)"><g><path d="M 22.03125 0 L 7.234375 0 L 7.234375 -77.5 L 22.03125 -77.5 Z M 22.03125 0 "/></g></g></g><g fill="#000000" fill-opacity="1"><g transform="translate(180.305261, 190.377415)"><g><path d="M 57.15625 -25.796875 C 57.15625 -20.484375 55.984375 -15.796875 53.640625 -11.734375 C 51.296875 -7.679688 48.0625 -4.5 43.9375 -2.1875 C 39.8125 0.113281 35.128906 1.265625 29.890625 1.265625 C 24.648438 1.265625 20.019531 0.21875 16 -1.875 C 11.976562 -3.976562 8.847656 -6.96875 6.609375 -10.84375 C 4.367188 -14.726562 3.25 -19.363281 3.25 -24.75 C 3.25 -29.925781 4.453125 -34.503906 6.859375 -38.484375 C 9.273438 -42.472656 12.5625 -45.617188 16.71875 -47.921875 C 20.882812 -50.234375 25.554688 -51.390625 30.734375 -51.390625 C 35.972656 -51.390625 40.566406 -50.390625 44.515625 -48.390625 C 48.460938 -46.398438 51.554688 -43.5 53.796875 -39.6875 C 56.035156 -35.882812 57.15625 -31.253906 57.15625 -25.796875 Z M 18.875 -25.484375 C 18.875 -20.242188 19.765625 -15.992188 21.546875 -12.734375 C 23.328125 -9.484375 26.210938 -7.859375 30.203125 -7.859375 C 34.253906 -7.859375 37.171875 -9.429688 38.953125 -12.578125 C 40.742188 -15.722656 41.640625 -19.640625 41.640625 -24.328125 C 41.640625 -29.503906 40.851562 -33.785156 39.28125 -37.171875 C 37.707031 -40.566406 34.859375 -42.265625 30.734375 -42.265625 C 26.671875 -42.265625 23.675781 -40.691406 21.75 -37.546875 C 19.832031 -34.398438 18.875 -30.378906 18.875 -25.484375 Z M 18.875 -25.484375 "/></g></g></g></g></g></svg>