<svg xmlns="http://www.w3.org/2000/svg" xmlns:xlink="http://www.w3.org/1999/xlink" width="1920" zoomAndPan="magnify" viewBox="0 0 1440 809.999993" height="1080" preserveAspectRatio="xMidYMid meet" version="1.0"><defs><g/><clipPath id="5b7caecf1e"><path d="M 0.519531 220 L 1202 220 L 1202 227 L 0.519531 227 Z M 0.519531 220 " clip-rule="nonzero"/></clipPath><clipPath id="2bf46805cb"><path d="M 29 0.800781 L 1167 0.800781 L 1167 210 L 29 210 Z M 29 0.800781 " clip-rule="nonzero"/></clipPath><clipPath id="c2deedf6cc"><rect x="0" width="1138" y="0" height="210"/></clipPath><clipPath id="cb3c6c263f"><path d="M 287 266 L 919 266 L 919 320.71875 L 287 320.71875 Z M 287 266 " clip-rule="nonzero"/></clipPath><clipPath id="4312bda6c6"><rect x="0" width="632" y="0" height="55"/></clipPath><clipPath id="445266a2c1"><path d="M 52.152344 43.675781 L 240.199219 43.675781 L 240.199219 161.203125 L 52.152344 161.203125 Z M 52.152344 43.675781 " clip-rule="nonzero"/></clipPath><clipPath id="de9ad71a6f"><rect x="0" width="1203" y="0" height="321"/></clipPath></defs><g transform="matrix(1, 0, 0, 1, 119, 244)"><g clip-path="url(#de9ad71a6f)"><g clip-path="url(#5b7caecf1e)"><path stroke-linecap="round" transform="matrix(3.357998, 0, 0, 3.357998, 0.701092, 220.220172)" fill="none" stroke-linejoin="miter" d="M 0.999852 0.999987 L 356.53393 0.999987 " stroke="#0d1a34" stroke-width="2" stroke-opacity="1" stroke-miterlimit="4"/></g><g clip-path="url(#2bf46805cb)"><g transform="matrix(1, 0, 0, 1, 29, 0.000000000000056843)"><g clip-path="url(#c2deedf6cc)"><g fill="#0d1a34" fill-opacity="1"><g transform="translate(3.852239, 164.331117)"><g/></g></g><g fill="#0d1a34" fill-opacity="1"><g transform="translate(43.129347, 164.331117)"><g/></g></g><g fill="#0d1a34" fill-opacity="1"><g transform="translate(82.406455, 164.331117)"><g/></g></g><g fill="#0d1a34" fill-opacity="1"><g transform="translate(121.683563, 164.331117)"><g/></g></g><g fill="#0d1a34" fill-opacity="1"><g transform="translate(160.960671, 164.331117)"><g/></g></g><g fill="#0d1a34" fill-opacity="1"><g transform="translate(200.237779, 164.331117)"><g/></g></g><g fill="#0d1a34" fill-opacity="1"><g transform="translate(239.529941, 164.331117)"><g><path d="M 45.921875 0 C 44.753906 0 43.789062 -0.375 43.03125 -1.125 C 42.28125 -1.882812 41.90625 -2.847656 41.90625 -4.015625 L 41.90625 -106.671875 L 8.375 -106.671875 C 7.21875 -106.671875 6.257812 -107.050781 5.5 -107.8125 C 4.738281 -108.570312 4.359375 -109.53125 4.359375 -110.6875 L 4.359375 -118.03125 C 4.359375 -119.3125 4.738281 -120.328125 5.5 -121.078125 C 6.257812 -121.835938 7.21875 -122.21875 8.375 -122.21875 L 92.53125 -122.21875 C 93.8125 -122.21875 94.828125 -121.835938 95.578125 -121.078125 C 96.335938 -120.328125 96.71875 -119.3125 96.71875 -118.03125 L 96.71875 -110.6875 C 96.71875 -109.53125 96.335938 -108.570312 95.578125 -107.8125 C 94.828125 -107.050781 93.8125 -106.671875 92.53125 -106.671875 L 59.1875 -106.671875 L 59.1875 -4.015625 C 59.1875 -2.847656 58.804688 -1.882812 58.046875 -1.125 C 57.296875 -0.375 56.28125 0 55 0 Z M 45.921875 0 "/></g></g></g><g fill="#0d1a34" fill-opacity="1"><g transform="translate(337.11309, 164.331117)"><g><path d="M 16.9375 0 C 15.769531 0 14.804688 -0.375 14.046875 -1.125 C 13.296875 -1.882812 12.921875 -2.847656 12.921875 -4.015625 L 12.921875 -86.765625 C 12.921875 -87.929688 13.296875 -88.890625 14.046875 -89.640625 C 14.804688 -90.398438 15.769531 -90.78125 16.9375 -90.78125 L 25.3125 -90.78125 C 26.476562 -90.78125 27.4375 -90.398438 28.1875 -89.640625 C 28.945312 -88.890625 29.328125 -87.929688 29.328125 -86.765625 L 29.328125 -4.015625 C 29.328125 -2.847656 28.945312 -1.882812 28.1875 -1.125 C 27.4375 -0.375 26.476562 0 25.3125 0 Z M 15.53125 -107.71875 C 14.375 -107.71875 13.414062 -108.097656 12.65625 -108.859375 C 11.894531 -109.617188 11.515625 -110.578125 11.515625 -111.734375 L 11.515625 -121.171875 C 11.515625 -122.328125 11.894531 -123.3125 12.65625 -124.125 C 13.414062 -124.945312 14.375 -125.359375 15.53125 -125.359375 L 26.53125 -125.359375 C 27.695312 -125.359375 28.6875 -124.945312 29.5 -124.125 C 30.320312 -123.3125 30.734375 -122.328125 30.734375 -121.171875 L 30.734375 -111.734375 C 30.734375 -110.578125 30.320312 -109.617188 29.5 -108.859375 C 28.6875 -108.097656 27.695312 -107.71875 26.53125 -107.71875 Z M 15.53125 -107.71875 "/></g></g></g><g fill="#0d1a34" fill-opacity="1"><g transform="translate(375.866498, 164.331117)"><g><path d="M 49.234375 1.75 C 37.128906 1.75 27.523438 -1.941406 20.421875 -9.328125 C 13.328125 -16.722656 9.429688 -26.820312 8.734375 -39.625 C 8.617188 -41.144531 8.5625 -43.097656 8.5625 -45.484375 C 8.5625 -47.867188 8.617188 -49.816406 8.734375 -51.328125 C 9.191406 -59.597656 11.109375 -66.84375 14.484375 -73.0625 C 17.859375 -79.289062 22.484375 -84.09375 28.359375 -87.46875 C 34.242188 -90.84375 41.144531 -92.53125 49.0625 -92.53125 C 57.90625 -92.53125 65.320312 -90.664062 71.3125 -86.9375 C 77.3125 -83.21875 81.878906 -77.925781 85.015625 -71.0625 C 88.160156 -64.195312 89.734375 -56.164062 89.734375 -46.96875 L 89.734375 -44 C 89.734375 -42.71875 89.351562 -41.726562 88.59375 -41.03125 C 87.84375 -40.332031 86.882812 -39.984375 85.71875 -39.984375 L 25.3125 -39.984375 C 25.3125 -39.867188 25.3125 -39.632812 25.3125 -39.28125 C 25.3125 -38.9375 25.3125 -38.644531 25.3125 -38.40625 C 25.550781 -33.632812 26.597656 -29.179688 28.453125 -25.046875 C 30.316406 -20.921875 33.023438 -17.578125 36.578125 -15.015625 C 40.128906 -12.453125 44.289062 -11.171875 49.0625 -11.171875 C 53.25 -11.171875 56.738281 -11.8125 59.53125 -13.09375 C 62.332031 -14.375 64.601562 -15.800781 66.34375 -17.375 C 68.09375 -18.945312 69.257812 -20.195312 69.84375 -21.125 C 70.882812 -22.519531 71.695312 -23.363281 72.28125 -23.65625 C 72.863281 -23.945312 73.796875 -24.09375 75.078125 -24.09375 L 83.625 -24.09375 C 84.675781 -24.09375 85.578125 -23.769531 86.328125 -23.125 C 87.085938 -22.488281 87.410156 -21.585938 87.296875 -20.421875 C 87.179688 -18.679688 86.25 -16.554688 84.5 -14.046875 C 82.757812 -11.546875 80.285156 -9.070312 77.078125 -6.625 C 73.878906 -4.1875 69.921875 -2.179688 65.203125 -0.609375 C 60.492188 0.960938 55.171875 1.75 49.234375 1.75 Z M 25.3125 -52.03125 L 73.15625 -52.03125 L 73.15625 -52.546875 C 73.15625 -57.785156 72.191406 -62.441406 70.265625 -66.515625 C 68.347656 -70.585938 65.582031 -73.816406 61.96875 -76.203125 C 58.363281 -78.597656 54.0625 -79.796875 49.0625 -79.796875 C 44.050781 -79.796875 39.769531 -78.597656 36.21875 -76.203125 C 32.675781 -73.816406 29.972656 -70.585938 28.109375 -66.515625 C 26.242188 -62.441406 25.3125 -57.785156 25.3125 -52.546875 Z M 25.3125 -52.03125 "/></g></g></g><g fill="#0d1a34" fill-opacity="1"><g transform="translate(470.132868, 164.331117)"><g><path d="M 17.109375 0 C 15.941406 0 14.976562 -0.375 14.21875 -1.125 C 13.46875 -1.882812 13.09375 -2.847656 13.09375 -4.015625 L 13.09375 -119.953125 C 13.09375 -121.109375 13.46875 -122.066406 14.21875 -122.828125 C 14.976562 -123.585938 15.941406 -123.96875 17.109375 -123.96875 L 25.3125 -123.96875 C 26.59375 -123.96875 27.582031 -123.585938 28.28125 -122.828125 C 28.976562 -122.066406 29.328125 -121.109375 29.328125 -119.953125 L 29.328125 -4.015625 C 29.328125 -2.847656 28.976562 -1.882812 28.28125 -1.125 C 27.582031 -0.375 26.59375 0 25.3125 0 Z M 17.109375 0 "/></g></g></g><g fill="#0d1a34" fill-opacity="1"><g transform="translate(509.060859, 164.331117)"><g><path d="M 50.109375 1.75 C 41.265625 1.75 33.875 0.0625 27.9375 -3.3125 C 22 -6.6875 17.457031 -11.367188 14.3125 -17.359375 C 11.175781 -23.359375 9.429688 -30.203125 9.078125 -37.890625 C 8.960938 -39.867188 8.90625 -42.398438 8.90625 -45.484375 C 8.90625 -48.566406 8.960938 -51.039062 9.078125 -52.90625 C 9.429688 -60.695312 11.207031 -67.5625 14.40625 -73.5 C 17.601562 -79.4375 22.171875 -84.09375 28.109375 -87.46875 C 34.046875 -90.84375 41.378906 -92.53125 50.109375 -92.53125 C 58.835938 -92.53125 66.171875 -90.84375 72.109375 -87.46875 C 78.046875 -84.09375 82.613281 -79.4375 85.8125 -73.5 C 89.007812 -67.5625 90.785156 -60.695312 91.140625 -52.90625 C 91.253906 -51.039062 91.3125 -48.566406 91.3125 -45.484375 C 91.3125 -42.398438 91.253906 -39.867188 91.140625 -37.890625 C 90.785156 -30.203125 89.035156 -23.359375 85.890625 -17.359375 C 82.753906 -11.367188 78.21875 -6.6875 72.28125 -3.3125 C 66.34375 0.0625 58.953125 1.75 50.109375 1.75 Z M 50.109375 -11.703125 C 57.328125 -11.703125 63.085938 -14 67.390625 -18.59375 C 71.703125 -23.1875 74.03125 -29.910156 74.375 -38.765625 C 74.488281 -40.503906 74.546875 -42.710938 74.546875 -45.390625 C 74.546875 -48.066406 74.488281 -50.28125 74.375 -52.03125 C 74.03125 -60.875 71.703125 -67.59375 67.390625 -72.1875 C 63.085938 -76.789062 57.328125 -79.09375 50.109375 -79.09375 C 42.890625 -79.09375 37.097656 -76.789062 32.734375 -72.1875 C 28.367188 -67.59375 26.070312 -60.875 25.84375 -52.03125 C 25.726562 -50.28125 25.671875 -48.066406 25.671875 -45.390625 C 25.671875 -42.710938 25.726562 -40.503906 25.84375 -38.765625 C 26.070312 -29.910156 28.367188 -23.1875 32.734375 -18.59375 C 37.097656 -14 42.890625 -11.703125 50.109375 -11.703125 Z M 50.109375 -11.703125 "/></g></g></g><g fill="#0d1a34" fill-opacity="1"><g transform="translate(605.771193, 164.331117)"><g/></g></g><g fill="#0d1a34" fill-opacity="1"><g transform="translate(645.048301, 164.331117)"><g><path d="M 19.203125 0 C 17.921875 0 16.929688 -0.375 16.234375 -1.125 C 15.535156 -1.882812 15.1875 -2.847656 15.1875 -4.015625 L 15.1875 -118.03125 C 15.1875 -119.3125 15.535156 -120.328125 16.234375 -121.078125 C 16.929688 -121.835938 17.921875 -122.21875 19.203125 -122.21875 L 58.84375 -122.21875 C 70.832031 -122.21875 80.488281 -120.410156 87.8125 -116.796875 C 95.144531 -113.191406 100.5 -107.867188 103.875 -100.828125 C 107.257812 -93.785156 109.007812 -85.144531 109.125 -74.90625 C 109.238281 -69.664062 109.296875 -65.066406 109.296875 -61.109375 C 109.296875 -57.148438 109.238281 -52.609375 109.125 -47.484375 C 108.882812 -36.773438 107.101562 -27.898438 103.78125 -20.859375 C 100.46875 -13.816406 95.234375 -8.578125 88.078125 -5.140625 C 80.921875 -1.710938 71.46875 0 59.71875 0 Z M 32.296875 -14.84375 L 58.84375 -14.84375 C 66.875 -14.84375 73.273438 -15.945312 78.046875 -18.15625 C 82.816406 -20.363281 86.273438 -23.910156 88.421875 -28.796875 C 90.578125 -33.691406 91.71875 -40.15625 91.84375 -48.1875 C 92.070312 -51.675781 92.1875 -54.726562 92.1875 -57.34375 C 92.1875 -59.96875 92.1875 -62.585938 92.1875 -65.203125 C 92.1875 -67.828125 92.070312 -70.828125 91.84375 -74.203125 C 91.601562 -85.492188 88.921875 -93.84375 83.796875 -99.25 C 78.679688 -104.664062 70.070312 -107.375 57.96875 -107.375 L 32.296875 -107.375 Z M 32.296875 -14.84375 "/></g></g></g><g fill="#0d1a34" fill-opacity="1"><g transform="translate(761.834034, 164.331117)"><g><path d="M 16.9375 0 C 15.769531 0 14.804688 -0.375 14.046875 -1.125 C 13.296875 -1.882812 12.921875 -2.847656 12.921875 -4.015625 L 12.921875 -86.765625 C 12.921875 -87.929688 13.296875 -88.890625 14.046875 -89.640625 C 14.804688 -90.398438 15.769531 -90.78125 16.9375 -90.78125 L 25.3125 -90.78125 C 26.476562 -90.78125 27.4375 -90.398438 28.1875 -89.640625 C 28.945312 -88.890625 29.328125 -87.929688 29.328125 -86.765625 L 29.328125 -4.015625 C 29.328125 -2.847656 28.945312 -1.882812 28.1875 -1.125 C 27.4375 -0.375 26.476562 0 25.3125 0 Z M 15.53125 -107.71875 C 14.375 -107.71875 13.414062 -108.097656 12.65625 -108.859375 C 11.894531 -109.617188 11.515625 -110.578125 11.515625 -111.734375 L 11.515625 -121.171875 C 11.515625 -122.328125 11.894531 -123.3125 12.65625 -124.125 C 13.414062 -124.945312 14.375 -125.359375 15.53125 -125.359375 L 26.53125 -125.359375 C 27.695312 -125.359375 28.6875 -124.945312 29.5 -124.125 C 30.320312 -123.3125 30.734375 -122.328125 30.734375 -121.171875 L 30.734375 -111.734375 C 30.734375 -110.578125 30.320312 -109.617188 29.5 -108.859375 C 28.6875 -108.097656 27.695312 -107.71875 26.53125 -107.71875 Z M 15.53125 -107.71875 "/></g></g></g><g fill="#0d1a34" fill-opacity="1"><g transform="translate(800.587442, 164.331117)"><g><path d="M 50.109375 38.40625 C 42.191406 38.40625 35.703125 37.359375 30.640625 35.265625 C 25.578125 33.171875 21.617188 30.640625 18.765625 27.671875 C 15.910156 24.703125 13.875 21.734375 12.65625 18.765625 C 11.4375 15.796875 10.769531 13.441406 10.65625 11.703125 C 10.53125 10.535156 10.90625 9.539062 11.78125 8.71875 C 12.65625 7.90625 13.617188 7.5 14.671875 7.5 L 23.046875 7.5 C 24.097656 7.5 24.972656 7.734375 25.671875 8.203125 C 26.367188 8.671875 26.945312 9.660156 27.40625 11.171875 C 28.101562 12.921875 29.148438 14.867188 30.546875 17.015625 C 31.953125 19.171875 34.109375 21.035156 37.015625 22.609375 C 39.921875 24.179688 43.992188 24.96875 49.234375 24.96875 C 54.703125 24.96875 59.296875 24.207031 63.015625 22.6875 C 66.742188 21.175781 69.566406 18.617188 71.484375 15.015625 C 73.410156 11.410156 74.375 6.40625 74.375 0 L 74.375 -11.875 C 71.582031 -8.257812 67.914062 -5.257812 63.375 -2.875 C 58.832031 -0.488281 53.128906 0.703125 46.265625 0.703125 C 39.742188 0.703125 34.15625 -0.429688 29.5 -2.703125 C 24.84375 -4.972656 21.03125 -8.054688 18.0625 -11.953125 C 15.101562 -15.859375 12.894531 -20.3125 11.4375 -25.3125 C 9.976562 -30.320312 9.132812 -35.5625 8.90625 -41.03125 C 8.789062 -44.289062 8.789062 -47.488281 8.90625 -50.625 C 9.132812 -56.101562 9.976562 -61.34375 11.4375 -66.34375 C 12.894531 -71.351562 15.101562 -75.832031 18.0625 -79.78125 C 21.03125 -83.738281 24.84375 -86.851562 29.5 -89.125 C 34.15625 -91.394531 39.742188 -92.53125 46.265625 -92.53125 C 53.253906 -92.53125 59.046875 -91.25 63.640625 -88.6875 C 68.234375 -86.132812 71.988281 -82.9375 74.90625 -79.09375 L 74.90625 -86.59375 C 74.90625 -87.757812 75.28125 -88.75 76.03125 -89.5625 C 76.789062 -90.375 77.753906 -90.78125 78.921875 -90.78125 L 86.953125 -90.78125 C 88.109375 -90.78125 89.09375 -90.375 89.90625 -89.5625 C 90.726562 -88.75 91.140625 -87.757812 91.140625 -86.59375 L 91.140625 -1.921875 C 91.140625 5.878906 89.828125 12.804688 87.203125 18.859375 C 84.585938 24.910156 80.28125 29.679688 74.28125 33.171875 C 68.289062 36.660156 60.234375 38.40625 50.109375 38.40625 Z M 49.765625 -13.265625 C 55.578125 -13.265625 60.257812 -14.601562 63.8125 -17.28125 C 67.363281 -19.957031 69.984375 -23.332031 71.671875 -27.40625 C 73.359375 -31.476562 74.257812 -35.613281 74.375 -39.8125 C 74.488281 -41.4375 74.546875 -43.441406 74.546875 -45.828125 C 74.546875 -48.210938 74.488281 -50.222656 74.375 -51.859375 C 74.257812 -56.046875 73.359375 -60.175781 71.671875 -64.25 C 69.984375 -68.320312 67.363281 -71.695312 63.8125 -74.375 C 60.257812 -77.050781 55.578125 -78.390625 49.765625 -78.390625 C 43.941406 -78.390625 39.28125 -77.078125 35.78125 -74.453125 C 32.289062 -71.835938 29.789062 -68.40625 28.28125 -64.15625 C 26.769531 -59.914062 25.898438 -55.347656 25.671875 -50.453125 C 25.546875 -47.429688 25.546875 -44.347656 25.671875 -41.203125 C 25.898438 -36.316406 26.769531 -31.75 28.28125 -27.5 C 29.789062 -23.25 32.289062 -19.8125 35.78125 -17.1875 C 39.28125 -14.570312 43.941406 -13.265625 49.765625 -13.265625 Z M 49.765625 -13.265625 "/></g></g></g><g fill="#0d1a34" fill-opacity="1"><g transform="translate(901.312836, 164.331117)"><g><path d="M 16.9375 0 C 15.769531 0 14.804688 -0.375 14.046875 -1.125 C 13.296875 -1.882812 12.921875 -2.847656 12.921875 -4.015625 L 12.921875 -86.765625 C 12.921875 -87.929688 13.296875 -88.890625 14.046875 -89.640625 C 14.804688 -90.398438 15.769531 -90.78125 16.9375 -90.78125 L 25.3125 -90.78125 C 26.476562 -90.78125 27.4375 -90.398438 28.1875 -89.640625 C 28.945312 -88.890625 29.328125 -87.929688 29.328125 -86.765625 L 29.328125 -4.015625 C 29.328125 -2.847656 28.945312 -1.882812 28.1875 -1.125 C 27.4375 -0.375 26.476562 0 25.3125 0 Z M 15.53125 -107.71875 C 14.375 -107.71875 13.414062 -108.097656 12.65625 -108.859375 C 11.894531 -109.617188 11.515625 -110.578125 11.515625 -111.734375 L 11.515625 -121.171875 C 11.515625 -122.328125 11.894531 -123.3125 12.65625 -124.125 C 13.414062 -124.945312 14.375 -125.359375 15.53125 -125.359375 L 26.53125 -125.359375 C 27.695312 -125.359375 28.6875 -124.945312 29.5 -124.125 C 30.320312 -123.3125 30.734375 -122.328125 30.734375 -121.171875 L 30.734375 -111.734375 C 30.734375 -110.578125 30.320312 -109.617188 29.5 -108.859375 C 28.6875 -108.097656 27.695312 -107.71875 26.53125 -107.71875 Z M 15.53125 -107.71875 "/></g></g></g><g fill="#0d1a34" fill-opacity="1"><g transform="translate(940.066245, 164.331117)"><g><path d="M 48.359375 0 C 41.835938 0 36.539062 -1.25 32.46875 -3.75 C 28.394531 -6.25 25.425781 -9.796875 23.5625 -14.390625 C 21.707031 -18.992188 20.78125 -24.441406 20.78125 -30.734375 L 20.78125 -76.828125 L 7.15625 -76.828125 C 5.988281 -76.828125 5.023438 -77.203125 4.265625 -77.953125 C 3.515625 -78.710938 3.140625 -79.675781 3.140625 -80.84375 L 3.140625 -86.765625 C 3.140625 -87.929688 3.515625 -88.890625 4.265625 -89.640625 C 5.023438 -90.398438 5.988281 -90.78125 7.15625 -90.78125 L 20.78125 -90.78125 L 20.78125 -119.953125 C 20.78125 -121.109375 21.15625 -122.066406 21.90625 -122.828125 C 22.664062 -123.585938 23.628906 -123.96875 24.796875 -123.96875 L 33 -123.96875 C 34.164062 -123.96875 35.125 -123.585938 35.875 -122.828125 C 36.632812 -122.066406 37.015625 -121.109375 37.015625 -119.953125 L 37.015625 -90.78125 L 58.65625 -90.78125 C 59.9375 -90.78125 60.925781 -90.398438 61.625 -89.640625 C 62.320312 -88.890625 62.671875 -87.929688 62.671875 -86.765625 L 62.671875 -80.84375 C 62.671875 -79.675781 62.320312 -78.710938 61.625 -77.953125 C 60.925781 -77.203125 59.9375 -76.828125 58.65625 -76.828125 L 37.015625 -76.828125 L 37.015625 -31.953125 C 37.015625 -26.484375 37.941406 -22.175781 39.796875 -19.03125 C 41.660156 -15.882812 44.984375 -14.3125 49.765625 -14.3125 L 60.40625 -14.3125 C 61.570312 -14.3125 62.53125 -13.929688 63.28125 -13.171875 C 64.039062 -12.421875 64.421875 -11.460938 64.421875 -10.296875 L 64.421875 -4.015625 C 64.421875 -2.847656 64.039062 -1.882812 63.28125 -1.125 C 62.53125 -0.375 61.570312 0 60.40625 0 Z M 48.359375 0 "/></g></g></g><g fill="#0d1a34" fill-opacity="1"><g transform="translate(1004.83043, 164.331117)"><g><path d="M 38.234375 1.75 C 32.410156 1.75 27.113281 0.585938 22.34375 -1.734375 C 17.570312 -4.066406 13.726562 -7.210938 10.8125 -11.171875 C 7.90625 -15.128906 6.453125 -19.613281 6.453125 -24.625 C 6.453125 -32.65625 9.710938 -39.054688 16.234375 -43.828125 C 22.753906 -48.597656 31.253906 -51.738281 41.734375 -53.25 L 67.75 -56.921875 L 67.75 -61.984375 C 67.75 -67.566406 66.144531 -71.929688 62.9375 -75.078125 C 59.738281 -78.222656 54.53125 -79.796875 47.3125 -79.796875 C 42.1875 -79.796875 37.992188 -78.742188 34.734375 -76.640625 C 31.484375 -74.546875 29.21875 -71.867188 27.9375 -68.609375 C 27.238281 -66.867188 26.015625 -66 24.265625 -66 L 16.40625 -66 C 15.125 -66 14.164062 -66.375 13.53125 -67.125 C 12.894531 -67.882812 12.578125 -68.789062 12.578125 -69.84375 C 12.578125 -71.582031 13.242188 -73.734375 14.578125 -76.296875 C 15.921875 -78.859375 17.988281 -81.359375 20.78125 -83.796875 C 23.570312 -86.242188 27.148438 -88.3125 31.515625 -90 C 35.878906 -91.6875 41.203125 -92.53125 47.484375 -92.53125 C 54.472656 -92.53125 60.351562 -91.628906 65.125 -89.828125 C 69.894531 -88.023438 73.644531 -85.609375 76.375 -82.578125 C 79.113281 -79.554688 81.09375 -76.125 82.3125 -72.28125 C 83.539062 -68.4375 84.15625 -64.535156 84.15625 -60.578125 L 84.15625 -4.015625 C 84.15625 -2.847656 83.773438 -1.882812 83.015625 -1.125 C 82.265625 -0.375 81.304688 0 80.140625 0 L 72.109375 0 C 70.828125 0 69.835938 -0.375 69.140625 -1.125 C 68.441406 -1.882812 68.09375 -2.847656 68.09375 -4.015625 L 68.09375 -11.515625 C 66.582031 -9.421875 64.546875 -7.351562 61.984375 -5.3125 C 59.421875 -3.28125 56.21875 -1.59375 52.375 -0.25 C 48.53125 1.082031 43.816406 1.75 38.234375 1.75 Z M 41.90625 -11.34375 C 46.675781 -11.34375 51.039062 -12.359375 55 -14.390625 C 58.957031 -16.429688 62.070312 -19.601562 64.34375 -23.90625 C 66.613281 -28.21875 67.75 -33.632812 67.75 -40.15625 L 67.75 -45.046875 L 47.484375 -42.078125 C 39.222656 -40.910156 32.992188 -38.957031 28.796875 -36.21875 C 24.609375 -33.488281 22.515625 -30.03125 22.515625 -25.84375 C 22.515625 -22.582031 23.472656 -19.875 25.390625 -17.71875 C 27.316406 -15.5625 29.765625 -13.957031 32.734375 -12.90625 C 35.703125 -11.863281 38.757812 -11.34375 41.90625 -11.34375 Z M 41.90625 -11.34375 "/></g></g></g><g fill="#0d1a34" fill-opacity="1"><g transform="translate(1097.700285, 164.331117)"><g><path d="M 17.109375 0 C 15.941406 0 14.976562 -0.375 14.21875 -1.125 C 13.46875 -1.882812 13.09375 -2.847656 13.09375 -4.015625 L 13.09375 -119.953125 C 13.09375 -121.109375 13.46875 -122.066406 14.21875 -122.828125 C 14.976562 -123.585938 15.941406 -123.96875 17.109375 -123.96875 L 25.3125 -123.96875 C 26.59375 -123.96875 27.582031 -123.585938 28.28125 -122.828125 C 28.976562 -122.066406 29.328125 -121.109375 29.328125 -119.953125 L 29.328125 -4.015625 C 29.328125 -2.847656 28.976562 -1.882812 28.28125 -1.125 C 27.582031 -0.375 26.59375 0 25.3125 0 Z M 17.109375 0 "/></g></g></g></g></g></g><g clip-path="url(#cb3c6c263f)"><g transform="matrix(1, 0, 0, 1, 287, 266)"><g clip-path="url(#4312bda6c6)"><g fill="#0d1a34" fill-opacity="1"><g transform="translate(2.183687, 41.826964)"><g><path d="M 8.1875 0 C 7.664062 0 7.242188 -0.140625 6.921875 -0.421875 C 6.609375 -0.710938 6.425781 -1.070312 6.375 -1.5 L 1.5 -30.609375 C 1.46875 -30.671875 1.453125 -30.765625 1.453125 -30.890625 C 1.453125 -31.128906 1.550781 -31.347656 1.75 -31.546875 C 1.945312 -31.742188 2.164062 -31.84375 2.40625 -31.84375 L 8.375 -31.84375 C 9.25 -31.84375 9.734375 -31.492188 9.828125 -30.796875 L 12.59375 -13.59375 L 15.734375 -23.5625 C 15.972656 -24.375 16.472656 -24.78125 17.234375 -24.78125 L 20.65625 -24.78125 C 21.40625 -24.78125 21.90625 -24.375 22.15625 -23.5625 L 25.296875 -13.640625 L 28.109375 -30.796875 C 28.171875 -31.160156 28.304688 -31.425781 28.515625 -31.59375 C 28.734375 -31.757812 29.066406 -31.84375 29.515625 -31.84375 L 35.484375 -31.84375 C 35.753906 -31.84375 35.976562 -31.742188 36.15625 -31.546875 C 36.34375 -31.347656 36.4375 -31.128906 36.4375 -30.890625 L 36.4375 -30.609375 L 31.5625 -1.5 C 31.5 -1.070312 31.300781 -0.710938 30.96875 -0.421875 C 30.632812 -0.140625 30.226562 0 29.75 0 L 25.15625 0 C 24.664062 0 24.285156 -0.117188 24.015625 -0.359375 C 23.742188 -0.609375 23.5625 -0.882812 23.46875 -1.1875 L 18.96875 -13.78125 L 14.46875 -1.1875 C 14.34375 -0.882812 14.144531 -0.609375 13.875 -0.359375 C 13.601562 -0.117188 13.222656 0 12.734375 0 Z M 8.1875 0 "/></g></g></g><g fill="#0d1a34" fill-opacity="1"><g transform="translate(43.906419, 41.826964)"><g><path d="M 4.234375 0 C 3.929688 0 3.664062 -0.113281 3.4375 -0.34375 C 3.207031 -0.570312 3.09375 -0.835938 3.09375 -1.140625 L 3.09375 -30.65625 C 3.09375 -30.988281 3.195312 -31.269531 3.40625 -31.5 C 3.625 -31.726562 3.898438 -31.84375 4.234375 -31.84375 L 25.703125 -31.84375 C 26.035156 -31.84375 26.3125 -31.726562 26.53125 -31.5 C 26.757812 -31.269531 26.875 -30.988281 26.875 -30.65625 L 26.875 -26.15625 C 26.875 -25.820312 26.757812 -25.546875 26.53125 -25.328125 C 26.3125 -25.117188 26.035156 -25.015625 25.703125 -25.015625 L 11.328125 -25.015625 L 11.328125 -19.234375 L 24.703125 -19.234375 C 25.035156 -19.234375 25.3125 -19.117188 25.53125 -18.890625 C 25.757812 -18.671875 25.875 -18.394531 25.875 -18.0625 L 25.875 -13.921875 C 25.875 -13.585938 25.757812 -13.304688 25.53125 -13.078125 C 25.3125 -12.847656 25.035156 -12.734375 24.703125 -12.734375 L 11.328125 -12.734375 L 11.328125 -6.828125 L 26.0625 -6.828125 C 26.394531 -6.828125 26.675781 -6.710938 26.90625 -6.484375 C 27.132812 -6.253906 27.25 -5.972656 27.25 -5.640625 L 27.25 -1.140625 C 27.25 -0.804688 27.132812 -0.53125 26.90625 -0.3125 C 26.675781 -0.101562 26.394531 0 26.0625 0 Z M 4.234375 0 "/></g></g></g><g fill="#0d1a34" fill-opacity="1"><g transform="translate(76.94933, 41.826964)"><g><path d="M 4.234375 0 C 3.929688 0 3.664062 -0.113281 3.4375 -0.34375 C 3.207031 -0.570312 3.09375 -0.835938 3.09375 -1.140625 L 3.09375 -30.65625 C 3.09375 -30.988281 3.195312 -31.269531 3.40625 -31.5 C 3.625 -31.726562 3.898438 -31.84375 4.234375 -31.84375 L 18.28125 -31.84375 C 22.132812 -31.84375 25 -31.050781 26.875 -29.46875 C 28.757812 -27.894531 29.703125 -25.648438 29.703125 -22.734375 C 29.703125 -21.285156 29.3125 -20.03125 28.53125 -18.96875 C 27.757812 -17.90625 26.90625 -17.128906 25.96875 -16.640625 C 27.21875 -16.097656 28.265625 -15.195312 29.109375 -13.9375 C 29.960938 -12.675781 30.390625 -11.257812 30.390625 -9.6875 C 30.390625 -6.625 29.378906 -4.242188 27.359375 -2.546875 C 25.335938 -0.847656 22.445312 0 18.6875 0 Z M 17.328125 -19.234375 C 18.453125 -19.234375 19.316406 -19.535156 19.921875 -20.140625 C 20.523438 -20.753906 20.828125 -21.546875 20.828125 -22.515625 C 20.828125 -23.453125 20.53125 -24.21875 19.9375 -24.8125 C 19.351562 -25.40625 18.484375 -25.703125 17.328125 -25.703125 L 11.640625 -25.703125 L 11.640625 -19.234375 Z M 17.734375 -6.140625 C 18.921875 -6.140625 19.835938 -6.476562 20.484375 -7.15625 C 21.140625 -7.84375 21.46875 -8.6875 21.46875 -9.6875 C 21.46875 -10.71875 21.132812 -11.570312 20.46875 -12.25 C 19.800781 -12.9375 18.890625 -13.28125 17.734375 -13.28125 L 11.640625 -13.28125 L 11.640625 -6.140625 Z M 17.734375 -6.140625 "/></g></g></g><g fill="#0d1a34" fill-opacity="1"><g transform="translate(112.946072, 41.826964)"><g><path d="M 15.140625 0.453125 C 12.203125 0.453125 9.703125 0.03125 7.640625 -0.8125 C 5.578125 -1.664062 4.015625 -2.789062 2.953125 -4.1875 C 1.890625 -5.582031 1.332031 -7.097656 1.28125 -8.734375 C 1.28125 -9.003906 1.375 -9.226562 1.5625 -9.40625 C 1.757812 -9.59375 2 -9.6875 2.28125 -9.6875 L 8.328125 -9.6875 C 8.691406 -9.6875 8.984375 -9.625 9.203125 -9.5 C 9.429688 -9.382812 9.6875 -9.175781 9.96875 -8.875 C 10.351562 -8.144531 10.960938 -7.546875 11.796875 -7.078125 C 12.628906 -6.609375 13.742188 -6.375 15.140625 -6.375 C 16.785156 -6.375 18.046875 -6.625 18.921875 -7.125 C 19.796875 -7.625 20.234375 -8.3125 20.234375 -9.1875 C 20.234375 -9.820312 20.003906 -10.34375 19.546875 -10.75 C 19.097656 -11.164062 18.375 -11.53125 17.375 -11.84375 C 16.375 -12.164062 14.929688 -12.523438 13.046875 -12.921875 C 9.378906 -13.648438 6.632812 -14.753906 4.8125 -16.234375 C 3 -17.722656 2.09375 -19.847656 2.09375 -22.609375 C 2.09375 -24.484375 2.613281 -26.15625 3.65625 -27.625 C 4.707031 -29.101562 6.191406 -30.25 8.109375 -31.0625 C 10.035156 -31.882812 12.273438 -32.296875 14.828125 -32.296875 C 17.492188 -32.296875 19.804688 -31.832031 21.765625 -30.90625 C 23.722656 -29.976562 25.222656 -28.820312 26.265625 -27.4375 C 27.316406 -26.0625 27.867188 -24.707031 27.921875 -23.375 C 27.921875 -23.101562 27.828125 -22.867188 27.640625 -22.671875 C 27.460938 -22.472656 27.238281 -22.375 26.96875 -22.375 L 20.609375 -22.375 C 19.941406 -22.375 19.425781 -22.648438 19.0625 -23.203125 C 18.875 -23.835938 18.398438 -24.375 17.640625 -24.8125 C 16.890625 -25.25 15.953125 -25.46875 14.828125 -25.46875 C 13.554688 -25.46875 12.570312 -25.238281 11.875 -24.78125 C 11.175781 -24.332031 10.828125 -23.664062 10.828125 -22.78125 C 10.828125 -21.90625 11.28125 -21.21875 12.1875 -20.71875 C 13.09375 -20.21875 14.789062 -19.707031 17.28125 -19.1875 C 20.132812 -18.675781 22.398438 -18.03125 24.078125 -17.25 C 25.765625 -16.476562 27.007812 -15.476562 27.8125 -14.25 C 28.613281 -13.03125 29.015625 -11.476562 29.015625 -9.59375 C 29.015625 -7.53125 28.421875 -5.738281 27.234375 -4.21875 C 26.054688 -2.707031 24.421875 -1.550781 22.328125 -0.75 C 20.234375 0.0507812 17.835938 0.453125 15.140625 0.453125 Z M 15.140625 0.453125 "/></g></g></g><g fill="#0d1a34" fill-opacity="1"><g transform="translate(147.079636, 41.826964)"><g><path d="M 4.234375 0 C 3.929688 0 3.664062 -0.113281 3.4375 -0.34375 C 3.207031 -0.570312 3.09375 -0.835938 3.09375 -1.140625 L 3.09375 -30.703125 C 3.09375 -31.035156 3.207031 -31.304688 3.4375 -31.515625 C 3.664062 -31.734375 3.929688 -31.84375 4.234375 -31.84375 L 10.734375 -31.84375 C 11.066406 -31.84375 11.335938 -31.734375 11.546875 -31.515625 C 11.765625 -31.304688 11.875 -31.035156 11.875 -30.703125 L 11.875 -1.140625 C 11.875 -0.835938 11.765625 -0.570312 11.546875 -0.34375 C 11.335938 -0.113281 11.066406 0 10.734375 0 Z M 4.234375 0 "/></g></g></g><g fill="#0d1a34" fill-opacity="1"><g transform="translate(165.898502, 41.826964)"><g><path d="M 11.28125 0 C 10.945312 0 10.664062 -0.101562 10.4375 -0.3125 C 10.207031 -0.53125 10.09375 -0.804688 10.09375 -1.140625 L 10.09375 -24.421875 L 2.09375 -24.421875 C 1.757812 -24.421875 1.476562 -24.523438 1.25 -24.734375 C 1.019531 -24.953125 0.90625 -25.226562 0.90625 -25.5625 L 0.90625 -30.65625 C 0.90625 -30.988281 1.019531 -31.269531 1.25 -31.5 C 1.476562 -31.726562 1.757812 -31.84375 2.09375 -31.84375 L 26.796875 -31.84375 C 27.128906 -31.84375 27.40625 -31.726562 27.625 -31.5 C 27.851562 -31.269531 27.96875 -30.988281 27.96875 -30.65625 L 27.96875 -25.5625 C 27.96875 -25.226562 27.851562 -24.953125 27.625 -24.734375 C 27.40625 -24.523438 27.128906 -24.421875 26.796875 -24.421875 L 18.78125 -24.421875 L 18.78125 -1.140625 C 18.78125 -0.804688 18.664062 -0.53125 18.4375 -0.3125 C 18.21875 -0.101562 17.941406 0 17.609375 0 Z M 11.28125 0 "/></g></g></g><g fill="#0d1a34" fill-opacity="1"><g transform="translate(198.623283, 41.826964)"><g><path d="M 4.234375 0 C 3.929688 0 3.664062 -0.113281 3.4375 -0.34375 C 3.207031 -0.570312 3.09375 -0.835938 3.09375 -1.140625 L 3.09375 -30.65625 C 3.09375 -30.988281 3.195312 -31.269531 3.40625 -31.5 C 3.625 -31.726562 3.898438 -31.84375 4.234375 -31.84375 L 25.703125 -31.84375 C 26.035156 -31.84375 26.3125 -31.726562 26.53125 -31.5 C 26.757812 -31.269531 26.875 -30.988281 26.875 -30.65625 L 26.875 -26.15625 C 26.875 -25.820312 26.757812 -25.546875 26.53125 -25.328125 C 26.3125 -25.117188 26.035156 -25.015625 25.703125 -25.015625 L 11.328125 -25.015625 L 11.328125 -19.234375 L 24.703125 -19.234375 C 25.035156 -19.234375 25.3125 -19.117188 25.53125 -18.890625 C 25.757812 -18.671875 25.875 -18.394531 25.875 -18.0625 L 25.875 -13.921875 C 25.875 -13.585938 25.757812 -13.304688 25.53125 -13.078125 C 25.3125 -12.847656 25.035156 -12.734375 24.703125 -12.734375 L 11.328125 -12.734375 L 11.328125 -6.828125 L 26.0625 -6.828125 C 26.394531 -6.828125 26.675781 -6.710938 26.90625 -6.484375 C 27.132812 -6.253906 27.25 -5.972656 27.25 -5.640625 L 27.25 -1.140625 C 27.25 -0.804688 27.132812 -0.53125 26.90625 -0.3125 C 26.675781 -0.101562 26.394531 0 26.0625 0 Z M 4.234375 0 "/></g></g></g><g fill="#0d1a34" fill-opacity="1"><g transform="translate(231.666194, 41.826964)"><g><path d="M 15.140625 0.453125 C 12.203125 0.453125 9.703125 0.03125 7.640625 -0.8125 C 5.578125 -1.664062 4.015625 -2.789062 2.953125 -4.1875 C 1.890625 -5.582031 1.332031 -7.097656 1.28125 -8.734375 C 1.28125 -9.003906 1.375 -9.226562 1.5625 -9.40625 C 1.757812 -9.59375 2 -9.6875 2.28125 -9.6875 L 8.328125 -9.6875 C 8.691406 -9.6875 8.984375 -9.625 9.203125 -9.5 C 9.429688 -9.382812 9.6875 -9.175781 9.96875 -8.875 C 10.351562 -8.144531 10.960938 -7.546875 11.796875 -7.078125 C 12.628906 -6.609375 13.742188 -6.375 15.140625 -6.375 C 16.785156 -6.375 18.046875 -6.625 18.921875 -7.125 C 19.796875 -7.625 20.234375 -8.3125 20.234375 -9.1875 C 20.234375 -9.820312 20.003906 -10.34375 19.546875 -10.75 C 19.097656 -11.164062 18.375 -11.53125 17.375 -11.84375 C 16.375 -12.164062 14.929688 -12.523438 13.046875 -12.921875 C 9.378906 -13.648438 6.632812 -14.753906 4.8125 -16.234375 C 3 -17.722656 2.09375 -19.847656 2.09375 -22.609375 C 2.09375 -24.484375 2.613281 -26.15625 3.65625 -27.625 C 4.707031 -29.101562 6.191406 -30.25 8.109375 -31.0625 C 10.035156 -31.882812 12.273438 -32.296875 14.828125 -32.296875 C 17.492188 -32.296875 19.804688 -31.832031 21.765625 -30.90625 C 23.722656 -29.976562 25.222656 -28.820312 26.265625 -27.4375 C 27.316406 -26.0625 27.867188 -24.707031 27.921875 -23.375 C 27.921875 -23.101562 27.828125 -22.867188 27.640625 -22.671875 C 27.460938 -22.472656 27.238281 -22.375 26.96875 -22.375 L 20.609375 -22.375 C 19.941406 -22.375 19.425781 -22.648438 19.0625 -23.203125 C 18.875 -23.835938 18.398438 -24.375 17.640625 -24.8125 C 16.890625 -25.25 15.953125 -25.46875 14.828125 -25.46875 C 13.554688 -25.46875 12.570312 -25.238281 11.875 -24.78125 C 11.175781 -24.332031 10.828125 -23.664062 10.828125 -22.78125 C 10.828125 -21.90625 11.28125 -21.21875 12.1875 -20.71875 C 13.09375 -20.21875 14.789062 -19.707031 17.28125 -19.1875 C 20.132812 -18.675781 22.398438 -18.03125 24.078125 -17.25 C 25.765625 -16.476562 27.007812 -15.476562 27.8125 -14.25 C 28.613281 -13.03125 29.015625 -11.476562 29.015625 -9.59375 C 29.015625 -7.53125 28.421875 -5.738281 27.234375 -4.21875 C 26.054688 -2.707031 24.421875 -1.550781 22.328125 -0.75 C 20.234375 0.0507812 17.835938 0.453125 15.140625 0.453125 Z M 15.140625 0.453125 "/></g></g></g><g fill="#0d1a34" fill-opacity="1"><g transform="translate(265.799759, 41.826964)"><g/></g></g><g fill="#0d1a34" fill-opacity="1"><g transform="translate(279.210762, 41.826964)"><g><path d="M 12.1875 0 C 11.675781 0 11.257812 -0.125 10.9375 -0.375 C 10.625 -0.632812 10.40625 -0.960938 10.28125 -1.359375 L 1.09375 -30.46875 L 1 -30.890625 C 1 -31.128906 1.097656 -31.347656 1.296875 -31.546875 C 1.492188 -31.742188 1.726562 -31.84375 2 -31.84375 L 7.953125 -31.84375 C 8.410156 -31.84375 8.78125 -31.710938 9.0625 -31.453125 C 9.351562 -31.191406 9.546875 -30.910156 9.640625 -30.609375 L 15.828125 -10.046875 L 22.0625 -30.609375 C 22.15625 -30.941406 22.34375 -31.226562 22.625 -31.46875 C 22.914062 -31.71875 23.289062 -31.84375 23.75 -31.84375 L 29.703125 -31.84375 C 29.972656 -31.84375 30.195312 -31.742188 30.375 -31.546875 C 30.5625 -31.347656 30.65625 -31.128906 30.65625 -30.890625 C 30.65625 -30.734375 30.640625 -30.59375 30.609375 -30.46875 L 21.375 -1.359375 C 21.28125 -0.960938 21.070312 -0.632812 20.75 -0.375 C 20.4375 -0.125 20.023438 0 19.515625 0 Z M 12.1875 0 "/></g></g></g><g fill="#0d1a34" fill-opacity="1"><g transform="translate(314.753061, 41.826964)"><g><path d="M 16.28125 0.453125 C 11.976562 0.453125 8.582031 -0.59375 6.09375 -2.6875 C 3.601562 -4.78125 2.285156 -7.859375 2.140625 -11.921875 C 2.109375 -12.765625 2.09375 -14.066406 2.09375 -15.828125 C 2.09375 -17.585938 2.109375 -18.90625 2.140625 -19.78125 C 2.253906 -23.789062 3.578125 -26.878906 6.109375 -29.046875 C 8.648438 -31.210938 12.039062 -32.296875 16.28125 -32.296875 C 20.5 -32.296875 23.875 -31.210938 26.40625 -29.046875 C 28.9375 -26.878906 30.265625 -23.789062 30.390625 -19.78125 C 30.441406 -18.019531 30.46875 -16.703125 30.46875 -15.828125 C 30.46875 -14.921875 30.441406 -13.617188 30.390625 -11.921875 C 30.234375 -7.859375 28.914062 -4.78125 26.4375 -2.6875 C 23.96875 -0.59375 20.582031 0.453125 16.28125 0.453125 Z M 16.28125 -6.375 C 17.863281 -6.375 19.125 -6.847656 20.0625 -7.796875 C 21 -8.753906 21.5 -10.21875 21.5625 -12.1875 C 21.625 -13.945312 21.65625 -15.207031 21.65625 -15.96875 C 21.65625 -16.726562 21.625 -17.957031 21.5625 -19.65625 C 21.5 -21.625 21 -23.082031 20.0625 -24.03125 C 19.125 -24.988281 17.863281 -25.46875 16.28125 -25.46875 C 14.675781 -25.46875 13.398438 -24.988281 12.453125 -24.03125 C 11.515625 -23.082031 11.019531 -21.625 10.96875 -19.65625 C 10.9375 -18.800781 10.921875 -17.570312 10.921875 -15.96875 C 10.921875 -14.332031 10.9375 -13.070312 10.96875 -12.1875 C 11.019531 -10.21875 11.515625 -8.753906 12.453125 -7.796875 C 13.398438 -6.847656 14.675781 -6.375 16.28125 -6.375 Z M 16.28125 -6.375 "/></g></g></g><g fill="#0d1a34" fill-opacity="1"><g transform="translate(351.113386, 41.826964)"><g><path d="M 16.28125 0.453125 C 11.976562 0.453125 8.582031 -0.59375 6.09375 -2.6875 C 3.601562 -4.78125 2.285156 -7.859375 2.140625 -11.921875 C 2.109375 -12.765625 2.09375 -14.066406 2.09375 -15.828125 C 2.09375 -17.585938 2.109375 -18.90625 2.140625 -19.78125 C 2.253906 -23.789062 3.578125 -26.878906 6.109375 -29.046875 C 8.648438 -31.210938 12.039062 -32.296875 16.28125 -32.296875 C 20.5 -32.296875 23.875 -31.210938 26.40625 -29.046875 C 28.9375 -26.878906 30.265625 -23.789062 30.390625 -19.78125 C 30.441406 -18.019531 30.46875 -16.703125 30.46875 -15.828125 C 30.46875 -14.921875 30.441406 -13.617188 30.390625 -11.921875 C 30.234375 -7.859375 28.914062 -4.78125 26.4375 -2.6875 C 23.96875 -0.59375 20.582031 0.453125 16.28125 0.453125 Z M 16.28125 -6.375 C 17.863281 -6.375 19.125 -6.847656 20.0625 -7.796875 C 21 -8.753906 21.5 -10.21875 21.5625 -12.1875 C 21.625 -13.945312 21.65625 -15.207031 21.65625 -15.96875 C 21.65625 -16.726562 21.625 -17.957031 21.5625 -19.65625 C 21.5 -21.625 21 -23.082031 20.0625 -24.03125 C 19.125 -24.988281 17.863281 -25.46875 16.28125 -25.46875 C 14.675781 -25.46875 13.398438 -24.988281 12.453125 -24.03125 C 11.515625 -23.082031 11.019531 -21.625 10.96875 -19.65625 C 10.9375 -18.800781 10.921875 -17.570312 10.921875 -15.96875 C 10.921875 -14.332031 10.9375 -13.070312 10.96875 -12.1875 C 11.019531 -10.21875 11.515625 -8.753906 12.453125 -7.796875 C 13.398438 -6.847656 14.675781 -6.375 16.28125 -6.375 Z M 16.28125 -6.375 "/></g></g></g><g fill="#0d1a34" fill-opacity="1"><g transform="translate(387.473711, 41.826964)"><g><path d="M 4.234375 0 C 3.929688 0 3.664062 -0.113281 3.4375 -0.34375 C 3.207031 -0.570312 3.09375 -0.835938 3.09375 -1.140625 L 3.09375 -30.65625 C 3.09375 -30.988281 3.195312 -31.269531 3.40625 -31.5 C 3.625 -31.726562 3.898438 -31.84375 4.234375 -31.84375 L 16.734375 -31.84375 C 20.734375 -31.84375 23.863281 -30.929688 26.125 -29.109375 C 28.382812 -27.285156 29.515625 -24.722656 29.515625 -21.421875 C 29.515625 -19.296875 29.019531 -17.488281 28.03125 -16 C 27.050781 -14.519531 25.695312 -13.367188 23.96875 -12.546875 L 30.109375 -1.453125 C 30.203125 -1.273438 30.25 -1.109375 30.25 -0.953125 C 30.25 -0.710938 30.15625 -0.492188 29.96875 -0.296875 C 29.789062 -0.0976562 29.566406 0 29.296875 0 L 22.875 0 C 22 0 21.378906 -0.410156 21.015625 -1.234375 L 16.015625 -11.09375 L 11.640625 -11.09375 L 11.640625 -1.140625 C 11.640625 -0.804688 11.523438 -0.53125 11.296875 -0.3125 C 11.078125 -0.101562 10.800781 0 10.46875 0 Z M 16.6875 -17.78125 C 18 -17.78125 18.992188 -18.101562 19.671875 -18.75 C 20.359375 -19.40625 20.703125 -20.3125 20.703125 -21.46875 C 20.703125 -22.625 20.359375 -23.550781 19.671875 -24.25 C 18.992188 -24.945312 18 -25.296875 16.6875 -25.296875 L 11.640625 -25.296875 L 11.640625 -17.78125 Z M 16.6875 -17.78125 "/></g></g></g><g fill="#0d1a34" fill-opacity="1"><g transform="translate(422.925151, 41.826964)"><g/></g></g><g fill="#0d1a34" fill-opacity="1"><g transform="translate(436.336154, 41.826964)"><g><path d="M 12.1875 0 C 11.675781 0 11.257812 -0.125 10.9375 -0.375 C 10.625 -0.632812 10.40625 -0.960938 10.28125 -1.359375 L 1.09375 -30.46875 L 1 -30.890625 C 1 -31.128906 1.097656 -31.347656 1.296875 -31.546875 C 1.492188 -31.742188 1.726562 -31.84375 2 -31.84375 L 7.953125 -31.84375 C 8.410156 -31.84375 8.78125 -31.710938 9.0625 -31.453125 C 9.351562 -31.191406 9.546875 -30.910156 9.640625 -30.609375 L 15.828125 -10.046875 L 22.0625 -30.609375 C 22.15625 -30.941406 22.34375 -31.226562 22.625 -31.46875 C 22.914062 -31.71875 23.289062 -31.84375 23.75 -31.84375 L 29.703125 -31.84375 C 29.972656 -31.84375 30.195312 -31.742188 30.375 -31.546875 C 30.5625 -31.347656 30.65625 -31.128906 30.65625 -30.890625 C 30.65625 -30.734375 30.640625 -30.59375 30.609375 -30.46875 L 21.375 -1.359375 C 21.28125 -0.960938 21.070312 -0.632812 20.75 -0.375 C 20.4375 -0.125 20.023438 0 19.515625 0 Z M 12.1875 0 "/></g></g></g><g fill="#0d1a34" fill-opacity="1"><g transform="translate(471.878453, 41.826964)"><g><path d="M 1.3125 0 C 1.070312 0 0.851562 -0.0976562 0.65625 -0.296875 C 0.457031 -0.492188 0.359375 -0.710938 0.359375 -0.953125 C 0.359375 -1.140625 0.375 -1.273438 0.40625 -1.359375 L 11 -30.515625 C 11.3125 -31.398438 11.921875 -31.84375 12.828125 -31.84375 L 19.921875 -31.84375 C 20.828125 -31.84375 21.429688 -31.398438 21.734375 -30.515625 L 32.34375 -1.359375 C 32.375 -1.273438 32.390625 -1.140625 32.390625 -0.953125 C 32.390625 -0.710938 32.289062 -0.492188 32.09375 -0.296875 C 31.894531 -0.0976562 31.671875 0 31.421875 0 L 25.515625 0 C 24.785156 0 24.269531 -0.332031 23.96875 -1 L 22.328125 -5.40625 L 10.421875 -5.40625 L 8.78125 -1 C 8.476562 -0.332031 7.960938 0 7.234375 0 Z M 12.328125 -12.234375 L 20.421875 -12.234375 L 16.375 -23.828125 Z M 12.328125 -12.234375 "/></g></g></g><g fill="#0d1a34" fill-opacity="1"><g transform="translate(508.466, 41.826964)"><g><path d="M 4.234375 0 C 3.929688 0 3.664062 -0.113281 3.4375 -0.34375 C 3.207031 -0.570312 3.09375 -0.835938 3.09375 -1.140625 L 3.09375 -30.65625 C 3.09375 -30.988281 3.195312 -31.269531 3.40625 -31.5 C 3.625 -31.726562 3.898438 -31.84375 4.234375 -31.84375 L 10.328125 -31.84375 C 10.660156 -31.84375 10.929688 -31.726562 11.140625 -31.5 C 11.359375 -31.269531 11.46875 -30.988281 11.46875 -30.65625 L 11.46875 -20.734375 L 19.515625 -30.921875 C 19.847656 -31.535156 20.4375 -31.84375 21.28125 -31.84375 L 28.25 -31.84375 C 28.488281 -31.84375 28.707031 -31.742188 28.90625 -31.546875 C 29.101562 -31.347656 29.203125 -31.128906 29.203125 -30.890625 C 29.203125 -30.640625 29.140625 -30.457031 29.015625 -30.34375 L 18.421875 -16.609375 L 29.890625 -1.5 C 30.003906 -1.375 30.0625 -1.191406 30.0625 -0.953125 C 30.0625 -0.710938 29.960938 -0.492188 29.765625 -0.296875 C 29.566406 -0.0976562 29.332031 0 29.0625 0 L 21.921875 0 C 21.441406 0 21.046875 -0.0976562 20.734375 -0.296875 C 20.429688 -0.492188 20.222656 -0.695312 20.109375 -0.90625 L 11.46875 -12.015625 L 11.46875 -1.140625 C 11.46875 -0.835938 11.359375 -0.570312 11.140625 -0.34375 C 10.929688 -0.113281 10.660156 0 10.328125 0 Z M 4.234375 0 "/></g></g></g><g fill="#0d1a34" fill-opacity="1"><g transform="translate(542.690423, 41.826964)"><g><path d="M 4.234375 0 C 3.929688 0 3.664062 -0.113281 3.4375 -0.34375 C 3.207031 -0.570312 3.09375 -0.835938 3.09375 -1.140625 L 3.09375 -30.703125 C 3.09375 -31.035156 3.207031 -31.304688 3.4375 -31.515625 C 3.664062 -31.734375 3.929688 -31.84375 4.234375 -31.84375 L 10.59375 -31.84375 C 10.925781 -31.84375 11.195312 -31.734375 11.40625 -31.515625 C 11.625 -31.304688 11.734375 -31.035156 11.734375 -30.703125 L 11.734375 -7.140625 L 25.375 -7.140625 C 25.707031 -7.140625 25.988281 -7.023438 26.21875 -6.796875 C 26.445312 -6.566406 26.5625 -6.285156 26.5625 -5.953125 L 26.5625 -1.140625 C 26.5625 -0.804688 26.445312 -0.53125 26.21875 -0.3125 C 25.988281 -0.101562 25.707031 0 25.375 0 Z M 4.234375 0 "/></g></g></g><g fill="#0d1a34" fill-opacity="1"><g transform="translate(573.824654, 41.826964)"><g><path d="M 16.609375 0.453125 C 12.296875 0.453125 8.914062 -0.59375 6.46875 -2.6875 C 4.03125 -4.78125 2.8125 -7.914062 2.8125 -12.09375 L 2.8125 -30.65625 C 2.8125 -30.988281 2.914062 -31.269531 3.125 -31.5 C 3.34375 -31.726562 3.617188 -31.84375 3.953125 -31.84375 L 10.1875 -31.84375 C 10.519531 -31.84375 10.800781 -31.726562 11.03125 -31.5 C 11.257812 -31.269531 11.375 -30.988281 11.375 -30.65625 L 11.375 -12.1875 C 11.375 -10.3125 11.816406 -8.898438 12.703125 -7.953125 C 13.597656 -7.015625 14.882812 -6.546875 16.5625 -6.546875 C 18.226562 -6.546875 19.503906 -7.023438 20.390625 -7.984375 C 21.285156 -8.941406 21.734375 -10.34375 21.734375 -12.1875 L 21.734375 -30.65625 C 21.734375 -30.988281 21.847656 -31.269531 22.078125 -31.5 C 22.304688 -31.726562 22.585938 -31.84375 22.921875 -31.84375 L 29.109375 -31.84375 C 29.441406 -31.84375 29.722656 -31.726562 29.953125 -31.5 C 30.179688 -31.269531 30.296875 -30.988281 30.296875 -30.65625 L 30.296875 -12.09375 C 30.296875 -7.914062 29.082031 -4.78125 26.65625 -2.6875 C 24.226562 -0.59375 20.878906 0.453125 16.609375 0.453125 Z M 16.609375 0.453125 "/></g></g></g><g fill="#0d1a34" fill-opacity="1"><g transform="translate(610.775736, 41.826964)"><g><path d="M 4.234375 0 C 3.929688 0 3.664062 -0.113281 3.4375 -0.34375 C 3.207031 -0.570312 3.09375 -0.835938 3.09375 -1.140625 L 3.09375 -30.703125 C 3.09375 -31.035156 3.207031 -31.304688 3.4375 -31.515625 C 3.664062 -31.734375 3.929688 -31.84375 4.234375 -31.84375 L 10.734375 -31.84375 C 11.066406 -31.84375 11.335938 -31.734375 11.546875 -31.515625 C 11.765625 -31.304688 11.875 -31.035156 11.875 -30.703125 L 11.875 -1.140625 C 11.875 -0.835938 11.765625 -0.570312 11.546875 -0.34375 C 11.335938 -0.113281 11.066406 0 10.734375 0 Z M 4.234375 0 "/></g></g></g></g></g></g><g clip-path="url(#445266a2c1)"><path fill="#000000" d="M 240.183594 102.4375 C 240.183594 110.363281 238.625 118.054688 235.554688 125.296875 C 232.59375 132.289062 228.351562 138.566406 222.949219 143.957031 C 217.546875 149.347656 211.257812 153.582031 204.246094 156.539062 C 196.988281 159.601562 189.28125 161.15625 181.339844 161.15625 L 129.121094 161.15625 L 129.121094 67.683594 L 190.644531 67.683594 L 182.878906 80.960938 L 142.425781 80.960938 L 142.425781 147.875 L 181.34375 147.875 C 193.507812 147.875 204.941406 143.148438 213.542969 134.566406 C 222.144531 125.984375 226.882812 114.574219 226.882812 102.4375 C 226.882812 90.296875 222.148438 78.890625 213.542969 70.304688 C 204.945312 61.726562 193.507812 56.996094 181.34375 56.996094 L 58.261719 56.996094 L 52.457031 44.523438 L 52.152344 43.726562 L 181.34375 43.726562 C 189.285156 43.726562 196.992188 45.28125 204.25 48.34375 C 211.257812 51.300781 217.550781 55.53125 222.953125 60.925781 C 228.355469 66.316406 232.597656 72.589844 235.558594 79.582031 C 238.628906 86.824219 240.183594 94.515625 240.183594 102.4375 Z M 116.742188 68.1875 L 63.460938 68.1875 L 69.632812 81.460938 L 103.441406 81.460938 L 103.441406 160.699219 L 116.742188 160.699219 Z M 116.742188 68.1875 " fill-opacity="1" fill-rule="nonzero"/></g></g></g></svg>